<svg xmlns="http://www.w3.org/2000/svg" xmlns:xlink="http://www.w3.org/1999/xlink" viewBox="0 0 112.06 121.8"><defs><style>.cls-1{fill:url(#New_Gradient_Swatch_2);}.cls-2{fill:url(#New_Gradient_Swatch_2-2);}</style><linearGradient id="New_Gradient_Swatch_2" y1="114.5" x2="112.06" y2="114.5" gradientUnits="userSpaceOnUse"><stop offset="0" stop-color="#16ab5d"/><stop offset="0" stop-color="#16ab5d"/><stop offset="0.56" stop-color="#1e8d9a"/><stop offset="0.98" stop-color="#2880b9"/><stop offset="1" stop-color="#2880b9"/></linearGradient><linearGradient id="New_Gradient_Swatch_2-2" x1="7.31" y1="44.46" x2="110.84" y2="44.46" xlink:href="#New_Gradient_Swatch_2"/></defs><title>Asset 2</title><g id="Layer_2" data-name="Layer 2"><g id="Capa_1" data-name="Capa 1"><path class="cls-1" d="M0,114.5a7.3,7.3,0,0,0,7.31,7.3h97.44a7.31,7.31,0,1,0,0-14.61H7.31A7.31,7.31,0,0,0,0,114.5Z"/><path class="cls-2" d="M8,84.62a7.3,7.3,0,0,0,9.67,3.65l88.91-40.2a7.3,7.3,0,0,0-.39-13.48L17.24.49A7.31,7.31,0,1,0,12,14.13L84.57,42l-73,33A7.3,7.3,0,0,0,8,84.62Z"/></g></g></svg>