<svg xmlns="http://www.w3.org/2000/svg" viewBox="0 0 298.44 434"><defs><style>.cls-1{fill:#343e4d;}</style></defs><title>calculator</title><g id="Layer_2" data-name="Layer 2"><g id="Layer_1-2" data-name="Layer 1"><path class="cls-1" d="M271.38,0H27.06A27.09,27.09,0,0,0,0,27.06V406.94A27.09,27.09,0,0,0,27.06,434H271.38a27.08,27.08,0,0,0,27.06-27.06V27.06A27.09,27.09,0,0,0,271.38,0Zm13.06,406.94A13.07,13.07,0,0,1,271.38,420H27.06A13.08,13.08,0,0,1,14,406.94V27.06A13.08,13.08,0,0,1,27.06,14H271.38a13.07,13.07,0,0,1,13.06,13.06ZM263.56,38.34V103a7,7,0,0,1-7,7H41.89a7,7,0,0,1-7-7V38.34a7,7,0,0,1,7-7H77.68a7,7,0,0,1,0,14H48.88V96H249.56V45.34H139.72a7,7,0,1,1,0-14H256.56a7,7,0,0,1,7,7Zm-161.84,0a7,7,0,0,1,7-7h5a7,7,0,0,1,0,14h-5A7,7,0,0,1,101.72,38.34Zm-5.6,102.8H59.22a7,7,0,0,0-7,7V185a7,7,0,0,0,7,7h36.9a7,7,0,0,0,7-7V148.14a7,7,0,0,0-7-7Zm-7,36.89H66.22V155.14h22.9Zm41.66,14h36.9a7,7,0,0,0,7-7V148.14a7,7,0,0,0-7-7h-36.9a7,7,0,0,0-7,7V185a7,7,0,0,0,7,7Zm7-36.89h22.9V178h-22.9Zm101.45-14h-36.9a7,7,0,0,0-7,7V185a7,7,0,0,0,7,7h36.89a7,7,0,0,0,7-7V148.14a7,7,0,0,0-7-7Zm-7,36.89h-22.9V155.14h22.89ZM103.12,211.3v36.88a7,7,0,0,1-7,7H59.22a7,7,0,0,1-7-7V211.3a7,7,0,0,1,14,0h0v29.9h22.9V211.3a7,7,0,0,1,14,0Zm20.66,36.88a7,7,0,0,0,7,7h36.9a7,7,0,0,0,7-7V211.3a7,7,0,0,0-7-7h-36.9a7,7,0,0,0-7,7h0Zm14-29.9h22.89v22.9H137.78Zm101.44-14H202.33a7,7,0,0,0-7,7v36.9a7,7,0,0,0,7,7h36.89a7,7,0,0,0,7-7V211.3a7,7,0,0,0-7-7h0Zm-7,36.9H209.33V218.3h22.89ZM96.12,267.47H59.22a7,7,0,0,0-7,7v36.91a7,7,0,0,0,7,7h36.9a7,7,0,0,0,7-7V274.47A7,7,0,0,0,96.12,267.47Zm-7,36.9H66.22v-22.9h22.9Zm34.66,7a7,7,0,0,0,7,7h36.9a7,7,0,0,0,7-7v-36.9a7,7,0,0,0-7-7h-36.9a7,7,0,0,0-7,7Zm14-29.9h22.89v22.9H137.78Zm101.44-14H202.33a7,7,0,0,0-7,7v36.91a7,7,0,0,0,7,7h36.89a7,7,0,0,0,7-7V274.47a7,7,0,0,0-7-7Zm-7,36.9H209.33v-22.9h22.89ZM96.12,330.64H59.22a7,7,0,0,0-7,7v36.9a7,7,0,0,0,7,7h36.9a7,7,0,0,0,7-7v-36.9A7,7,0,0,0,96.12,330.64Zm-7,36.9H66.22v-22.9h22.9Zm48.66-22.9v22.9H239.22a7,7,0,0,1,0,14H130.78a7,7,0,0,1-7-7v-36.9a7,7,0,0,1,7-7H239.22a7,7,0,1,1,0,14H137.78Z"/></g></g></svg>