<svg xmlns="http://www.w3.org/2000/svg" xmlns:xlink="http://www.w3.org/1999/xlink" viewBox="0 0 171.98 190.18"><defs><style>.cls-1{fill:#fff;}.cls-2{fill:url(#radial-gradient);}.cls-3{fill:url(#radial-gradient-2);}.cls-4{fill:url(#radial-gradient-3);}.cls-5{fill:url(#radial-gradient-4);}.cls-6{fill:url(#radial-gradient-5);}.cls-7{fill:url(#radial-gradient-6);}.cls-8{fill:url(#radial-gradient-7);}.cls-9{fill:url(#radial-gradient-8);}.cls-10{fill:url(#radial-gradient-9);}.cls-11{fill:url(#radial-gradient-10);}.cls-12{fill:url(#radial-gradient-11);}.cls-13{fill:url(#radial-gradient-12);}.cls-14{fill:url(#radial-gradient-13);}.cls-15{fill:url(#radial-gradient-14);}.cls-16{fill:url(#linear-gradient);}.cls-17{fill:url(#linear-gradient-2);}.cls-18{fill:url(#linear-gradient-3);}.cls-19{fill:url(#New_Gradient_Swatch_1);}.cls-20{fill:url(#radial-gradient-15);}.cls-21{fill:url(#radial-gradient-16);}.cls-22{fill:url(#radial-gradient-17);}.cls-23{fill:url(#radial-gradient-18);}.cls-24{fill:url(#radial-gradient-19);}.cls-25{fill:url(#radial-gradient-20);}.cls-26{fill:url(#radial-gradient-21);}.cls-27{fill:url(#radial-gradient-22);}.cls-28{fill:#fabf31;}.cls-29{fill:url(#linear-gradient-4);}.cls-30{fill:#f9be2f;}.cls-31{fill:url(#linear-gradient-5);}.cls-32{fill:url(#linear-gradient-6);}.cls-33{fill:url(#radial-gradient-23);}.cls-34{fill:url(#radial-gradient-24);}.cls-35{fill:url(#radial-gradient-25);}.cls-36{fill:url(#radial-gradient-26);}</style><radialGradient id="radial-gradient" cx="112.35" cy="-28.53" r="26.44" gradientTransform="matrix(1, 0, 0, -1, -43.2, 143.92)" gradientUnits="userSpaceOnUse"><stop offset="0" stop-color="#bcbec0"/><stop offset="0.99" stop-color="#e6e7e8"/></radialGradient><radialGradient id="radial-gradient-2" cx="108.08" cy="-47.87" r="26.49" gradientTransform="matrix(1, 0, 0, -1, -43.2, 143.92)" gradientUnits="userSpaceOnUse"><stop offset="0" stop-color="#808285"/><stop offset="0.99" stop-color="#58595b"/></radialGradient><radialGradient id="radial-gradient-3" cx="131.8" cy="-47.98" r="26.44" xlink:href="#radial-gradient"/><radialGradient id="radial-gradient-4" cx="127.53" cy="-67.32" r="26.49" xlink:href="#radial-gradient-2"/><radialGradient id="radial-gradient-5" cx="187.28" cy="-13.22" r="26.43" xlink:href="#radial-gradient"/><radialGradient id="radial-gradient-6" cx="183.01" cy="-32.58" r="26.5" xlink:href="#radial-gradient-2"/><radialGradient id="radial-gradient-7" cx="56.78" cy="13.44" r="26.43" xlink:href="#radial-gradient"/><radialGradient id="radial-gradient-8" cx="52.5" cy="-5.92" r="26.5" xlink:href="#radial-gradient-2"/><radialGradient id="radial-gradient-9" cx="48.01" cy="78.68" r="26.43" xlink:href="#radial-gradient"/><radialGradient id="radial-gradient-10" cx="43.74" cy="59.32" r="26.5" xlink:href="#radial-gradient-2"/><radialGradient id="radial-gradient-11" cx="72.99" cy="2.65" r="26.44" xlink:href="#radial-gradient"/><radialGradient id="radial-gradient-12" cx="68.71" cy="-16.7" r="26.49" xlink:href="#radial-gradient-2"/><radialGradient id="radial-gradient-13" cx="79.67" cy="134.64" r="26.44" xlink:href="#radial-gradient"/><radialGradient id="radial-gradient-14" cx="75.4" cy="115.29" r="26.49" xlink:href="#radial-gradient-2"/><linearGradient id="linear-gradient" x1="34.43" y1="101.2" x2="68.34" y2="101.2" gradientTransform="matrix(-1, 0, 0, 1, 171.98, 0)" gradientUnits="userSpaceOnUse"><stop offset="1" stop-color="#b465da"/><stop offset="1" stop-color="#cf6cc9"/></linearGradient><linearGradient id="linear-gradient-2" x1="34.43" y1="106.2" x2="68.34" y2="106.2" gradientTransform="matrix(-1, 0, 0, 1, 171.98, 0)" gradientUnits="userSpaceOnUse"><stop offset="1" stop-color="#ee609c"/><stop offset="1" stop-color="#b465da"/></linearGradient><linearGradient id="linear-gradient-3" x1="34.43" y1="112.66" x2="68.34" y2="112.66" xlink:href="#linear-gradient-2"/><linearGradient id="New_Gradient_Swatch_1" x1="16.67" y1="50.02" x2="94.17" y2="50.02" gradientTransform="matrix(-1, 0, 0, 1, 171.98, 0)" gradientUnits="userSpaceOnUse"><stop offset="0" stop-color="#b465da"/><stop offset="0.36" stop-color="#cf6cc9"/><stop offset="0.78" stop-color="#ee609c"/></linearGradient><radialGradient id="radial-gradient-15" cx="73.42" cy="58.58" r="39.37" gradientTransform="matrix(-1, 0, 0, 1, 171.98, 0)" xlink:href="#radial-gradient"/><radialGradient id="radial-gradient-16" cx="66.88" cy="23.26" r="20.4" gradientTransform="matrix(-1, 0, 0, 1, 171.98, 0)" xlink:href="#radial-gradient"/><radialGradient id="radial-gradient-17" cx="53.75" cy="73.92" r="35.69" gradientTransform="matrix(-1, 0, 0, 1, 171.98, 0)" xlink:href="#radial-gradient"/><radialGradient id="radial-gradient-18" cx="47.97" cy="47.79" r="35.77" gradientTransform="matrix(-1, 0, 0, 1, 171.98, 0)" xlink:href="#radial-gradient"/><radialGradient id="radial-gradient-19" cx="49.45" cy="105.73" r="58.18" gradientTransform="matrix(-1, 0, 0, 1, 171.98, 0)" xlink:href="#radial-gradient-2"/><radialGradient id="radial-gradient-20" cx="49.45" cy="119.29" r="58.18" gradientTransform="matrix(-1, 0, 0, 1, 171.98, 0)" xlink:href="#radial-gradient-2"/><radialGradient id="radial-gradient-21" cx="43.63" cy="87.8" r="42.37" gradientTransform="matrix(-1, 0, 0, 1, 171.98, 0)" xlink:href="#radial-gradient-2"/><radialGradient id="radial-gradient-22" cx="45.33" cy="41.16" r="15.08" gradientTransform="matrix(-1, 0, 0, 1, 171.98, 0)" xlink:href="#radial-gradient"/><linearGradient id="linear-gradient-4" x1="118.93" y1="31.29" x2="129.86" y2="31.29" gradientUnits="userSpaceOnUse"><stop offset="0" stop-color="#b465da"/><stop offset="0" stop-color="#ee609c"/></linearGradient><linearGradient id="linear-gradient-5" x1="109.1" y1="53.53" x2="116.94" y2="53.53" xlink:href="#linear-gradient-4"/><linearGradient id="linear-gradient-6" x1="131.18" y1="56.21" x2="140.38" y2="56.21" xlink:href="#linear-gradient-4"/><radialGradient id="radial-gradient-23" cx="21.74" cy="41.59" r="9.14" gradientTransform="matrix(-1, 0, 0, 1, 171.98, 0)" xlink:href="#radial-gradient"/><radialGradient id="radial-gradient-24" cx="37.62" cy="63.94" r="15.08" gradientTransform="matrix(-1, 0, 0, 1, 171.98, 0)" xlink:href="#radial-gradient"/><radialGradient id="radial-gradient-25" cx="35.74" cy="28.59" r="9.14" gradientTransform="matrix(-1, 0, 0, 1, 171.98, 0)" xlink:href="#radial-gradient"/><radialGradient id="radial-gradient-26" cx="58.73" cy="13.49" r="4.57" gradientTransform="matrix(-1, 0, 0, 1, 171.98, 0)" xlink:href="#radial-gradient"/></defs><title>head-gear</title><g id="Layer_2" data-name="Layer 2"><g id="objects"><rect class="cls-1" x="67.4" y="86.26" width="1.44" height="82.11"/><path class="cls-2" d="M71.9,167a3.78,3.78,0,1,0-3.78,3.78A3.79,3.79,0,0,0,71.9,167Z"/><path class="cls-3" d="M70.48,167a2.36,2.36,0,1,0-2.36,2.36A2.37,2.37,0,0,0,70.48,167Z"/><rect class="cls-1" x="86.85" y="97.61" width="1.44" height="90.21"/><path class="cls-4" d="M91.35,186.4a3.78,3.78,0,1,0-3.78,3.78A3.79,3.79,0,0,0,91.35,186.4Z"/><path class="cls-5" d="M89.93,186.4a2.36,2.36,0,1,0-2.36,2.36A2.37,2.37,0,0,0,89.93,186.4Z"/><rect class="cls-1" x="12.03" y="93.39" width="1.44" height="32.14"/><rect class="cls-1" x="12.03" y="93.39" width="73.29" height="1.44"/><rect class="cls-1" x="2.34" y="59.74" width="1.44" height="32.14"/><rect class="cls-1" x="2.34" y="90.44" width="73.29" height="1.44"/><rect class="cls-1" x="89.95" y="86.26" width="1.44" height="66.25"/><rect class="cls-1" x="89.95" y="151.07" width="53.17" height="1.44"/><path class="cls-6" d="M146.83,151.64a3.78,3.78,0,1,0-3.78,3.79A3.78,3.78,0,0,0,146.83,151.64Z"/><path class="cls-7" d="M145.42,151.64a2.37,2.37,0,1,0-2.37,2.37A2.37,2.37,0,0,0,145.42,151.64Z"/><rect class="cls-1" x="63.87" y="86.26" width="1.44" height="49.69"/><rect class="cls-1" x="28.94" y="134.51" width="36.38" height="1.44"/><rect class="cls-1" x="35.44" y="3.78" width="1.44" height="84.56"/><rect class="cls-1" x="35.44" y="86.9" width="50.58" height="1.44"/><path class="cls-8" d="M16.33,125a3.78,3.78,0,1,0-3.78,3.79A3.78,3.78,0,0,0,16.33,125Z"/><path class="cls-9" d="M14.91,125a2.37,2.37,0,1,0-2.36,2.37A2.36,2.36,0,0,0,14.91,125Z"/><path class="cls-10" d="M7.56,59.74a3.78,3.78,0,1,0-3.78,3.78A3.78,3.78,0,0,0,7.56,59.74Z"/><path class="cls-11" d="M6.15,59.74a2.37,2.37,0,1,0-2.37,2.37A2.37,2.37,0,0,0,6.15,59.74Z"/><path class="cls-12" d="M32.54,135.77a3.79,3.79,0,1,0-3.78,3.79A3.78,3.78,0,0,0,32.54,135.77Z"/><path class="cls-13" d="M31.12,135.77a2.37,2.37,0,1,0-2.36,2.37A2.36,2.36,0,0,0,31.12,135.77Z"/><path class="cls-14" d="M39.23,3.78a3.79,3.79,0,1,0-3.79,3.78A3.79,3.79,0,0,0,39.23,3.78Z"/><path class="cls-15" d="M37.81,3.78a2.37,2.37,0,1,0-2.37,2.37A2.37,2.37,0,0,0,37.81,3.78Z"/><circle class="cls-1" cx="112.01" cy="68.18" r="59.97" transform="translate(-9.51 18.9) rotate(-9.26)"/><rect class="cls-16" x="103.64" y="79.41" width="33.91" height="43.6"/><rect class="cls-17" x="103.64" y="103.94" width="33.91" height="4.52"/><rect class="cls-18" x="103.64" y="110.4" width="33.91" height="4.52"/><circle class="cls-19" cx="116.56" cy="50.02" r="38.75"/><path class="cls-20" d="M111.71,11.59S92.08,16,92.85,40.25s16.6,32.7,26.94,34,10.33,8.4,5.49,17.12S114,105.89,99.44,105.56s-17-2.85-17.84-5.78-2.18-9.07-5.73-20c0,0-6.46-2.39-7.11-3.94s4.36-6.88,8.71-20C76.35,41,83.13,14.82,111.71,11.59Z"/><path class="cls-21" d="M102.05,38.84a4.35,4.35,0,1,0,4.35-4.35A4.35,4.35,0,0,0,102.05,38.84Z"/><path class="cls-22" d="M114.52,81.34a5.11,5.11,0,1,0,5.11-5.1A5.11,5.11,0,0,0,114.52,81.34Z"/><path class="cls-23" d="M116.43,81.34a3.2,3.2,0,1,0,3.2-3.19A3.2,3.2,0,0,0,116.43,81.34Z"/><path class="cls-24" d="M94,124.13a4.69,4.69,0,0,0,4.69,4.69h43.27a4.69,4.69,0,0,0,4.68-4.69h0a4.69,4.69,0,0,0-4.68-4.68H98.64A4.69,4.69,0,0,0,94,124.13Z"/><path class="cls-25" d="M94,137.7a4.69,4.69,0,0,0,4.69,4.68h43.27a4.69,4.69,0,0,0,4.68-4.68h0a4.69,4.69,0,0,0-4.68-4.69H98.64A4.69,4.69,0,0,0,94,137.7Z"/><path class="cls-26" d="M102.12,130.91a3.23,3.23,0,0,0,3.23,3.23h29.84a3.22,3.22,0,0,0,3.23-3.23h0a3.22,3.22,0,0,0-3.23-3.22H105.35a3.23,3.23,0,0,0-3.23,3.22Z"/><path class="cls-27" d="M124.4,52.68a3.22,3.22,0,1,0,3.21-3.21A3.21,3.21,0,0,0,124.4,52.68Z"/><path class="cls-28" d="M135.78,33.6V29h-3a8.26,8.26,0,0,0-.81-2l2.12-2.12-3.29-3.29-2.12,2.12a8.89,8.89,0,0,0-2-.81v-3h-4.65v3a9.1,9.1,0,0,0-2,.81L118,21.59l-3.28,3.29L116.83,27a8.29,8.29,0,0,0-.82,2h-3V33.6h3a8.36,8.36,0,0,0,.82,2l-2.11,2.11L118,41l2.11-2.11a8.72,8.72,0,0,0,2,.82v3h4.65v-3a8.36,8.36,0,0,0,2-.82L130.8,41l3.29-3.29L132,35.57a8.78,8.78,0,0,0,.81-2ZM124.4,35.48a4.19,4.19,0,1,1,4.19-4.19A4.18,4.18,0,0,1,124.4,35.48Z"/><path class="cls-29" d="M129.86,31.29a5.47,5.47,0,1,0-5.46,5.47A5.46,5.46,0,0,0,129.86,31.29Z"/><path class="cls-30" d="M121.18,55.18V51.85H119a6.17,6.17,0,0,0-.58-1.4L120,48.93l-2.35-2.36-1.52,1.52a6.24,6.24,0,0,0-1.41-.58V45.36h-3.33v2.15a6.17,6.17,0,0,0-1.4.58l-1.52-1.52-2.36,2.36,1.52,1.52a6.19,6.19,0,0,0-.59,1.4h-2.14v3.33H107a6.32,6.32,0,0,0,.58,1.42l-1.51,1.51,2.36,2.36L109.94,59a6.24,6.24,0,0,0,1.41.58v2.14h3.33V59.54A6.32,6.32,0,0,0,116.1,59l1.51,1.51L120,58.11l-1.51-1.51a5.89,5.89,0,0,0,.58-1.42ZM113,56.53a3,3,0,1,1,3-3A3,3,0,0,1,113,56.53Z"/><path class="cls-31" d="M116.94,53.53A3.92,3.92,0,1,0,113,57.45,3.92,3.92,0,0,0,116.94,53.53Z"/><path class="cls-28" d="M145.35,58.15V54.24h-2.51a8,8,0,0,0-.69-1.65l1.78-1.78-2.77-2.76-1.78,1.78a7.26,7.26,0,0,0-1.65-.68V46.62h-3.91v2.53a7.45,7.45,0,0,0-1.65.68l-1.78-1.78-2.77,2.76,1.78,1.78a7.45,7.45,0,0,0-.68,1.65H126.2v3.91h2.51a6.93,6.93,0,0,0,.69,1.66l-1.78,1.78,2.77,2.76,1.77-1.77a7.56,7.56,0,0,0,1.66.69v2.5h3.91v-2.5a7.36,7.36,0,0,0,1.66-.69l1.77,1.77,2.77-2.76-1.78-1.78a6.93,6.93,0,0,0,.69-1.66Zm-9.58,1.59a3.53,3.53,0,1,1,3.53-3.53A3.53,3.53,0,0,1,135.77,59.74Z"/><path class="cls-32" d="M140.38,56.21a4.6,4.6,0,1,0-4.61,4.6A4.6,4.6,0,0,0,140.38,56.21Z"/><path class="cls-33" d="M148.87,48.57a1.95,1.95,0,1,0,1.95-2A1.95,1.95,0,0,0,148.87,48.57Z"/><path class="cls-34" d="M132.1,75.46a3.22,3.22,0,1,0,3.22-3.22A3.22,3.22,0,0,0,132.1,75.46Z"/><path class="cls-35" d="M134.87,35.57a1.95,1.95,0,1,0,1.95-2A1.95,1.95,0,0,0,134.87,35.57Z"/><path class="cls-36" d="M112.57,17a1,1,0,1,0,1-1A1,1,0,0,0,112.57,17Z"/></g></g></svg>