<svg xmlns="http://www.w3.org/2000/svg" xmlns:xlink="http://www.w3.org/1999/xlink" viewBox="0 0 16.5 14.5"><defs><style>.cls-1{fill:none;stroke-miterlimit:10;stroke-width:0.5px;stroke:url(#New_Gradient_Swatch_2);}</style><linearGradient id="New_Gradient_Swatch_2" y1="7.25" x2="16.5" y2="7.25" gradientUnits="userSpaceOnUse"><stop offset="0" stop-color="#16ab5d"/><stop offset="0" stop-color="#16ab5d"/><stop offset="0.56" stop-color="#1e8d9a"/><stop offset="0.98" stop-color="#2880b9"/><stop offset="1" stop-color="#2880b9"/></linearGradient></defs><title>Icon-WordProblem</title><g id="Layer_2" data-name="Layer 2"><g id="Layer_1-2" data-name="Layer 1"><path class="cls-1" d="M9.25,12.25h-8a1,1,0,0,0,0,2h8a1,1,0,0,0,0-2Zm6-8h-14a1,1,0,0,0,0,2h14a1,1,0,0,0,0-2Zm-14,6h14a1,1,0,0,0,0-2h-14a1,1,0,0,0,0,2Zm-1-9a1,1,0,0,0,1,1h14a1,1,0,0,0,0-2h-14A1,1,0,0,0,.25,1.25Z"/></g></g></svg>