<svg xmlns="http://www.w3.org/2000/svg" xmlns:xlink="http://www.w3.org/1999/xlink" viewBox="0 0 429.53 218.03"><defs><style>.cls-1{fill:url(#New_Gradient_Swatch_2);}.cls-2{fill:none;stroke-linecap:round;stroke-linejoin:round;stroke-width:4px;stroke:url(#New_Gradient_Swatch_2-2);}.cls-3{fill:url(#New_Gradient_Swatch_2-3);}.cls-4{fill:url(#New_Gradient_Swatch_2-4);}</style><linearGradient id="New_Gradient_Swatch_2" x1="29.84" y1="140.22" x2="375.2" y2="30.13" gradientUnits="userSpaceOnUse"><stop offset="0" stop-color="#16ab5d"/><stop offset="0" stop-color="#16ab5d"/><stop offset="0.56" stop-color="#1e8d9a"/><stop offset="0.98" stop-color="#2880b9"/><stop offset="1" stop-color="#2880b9"/></linearGradient><linearGradient id="New_Gradient_Swatch_2-2" x1="-3.96" y1="142.35" x2="433.49" y2="128.72" xlink:href="#New_Gradient_Swatch_2"/><linearGradient id="New_Gradient_Swatch_2-3" x1="-2.17" y1="199.85" x2="435.28" y2="186.21" xlink:href="#New_Gradient_Swatch_2"/><linearGradient id="New_Gradient_Swatch_2-4" x1="-5.75" y1="84.85" x2="431.7" y2="71.22" xlink:href="#New_Gradient_Swatch_2"/></defs><title>Icon-LinearEquation</title><g id="Layer_2" data-name="Layer 2"><g id="Capa_1" data-name="Capa 1"><path class="cls-1" d="M333.43,3l6.8,21.33q2.52-6.51,9.85-8.84a16.5,16.5,0,0,1,5.06-.84,13.93,13.93,0,0,1,8.22,2.71q6,4.22,9,13.85l.19.6q2.94,9.23.49,16.18a14.22,14.22,0,0,1-9.61,9.23,17.84,17.84,0,0,1-5.46.91A13.84,13.84,0,0,1,350,55.58l1.14,4.76-6.32,2L326.54,5.19,333.43,3m22.74,49.53a12.16,12.16,0,0,0,3.72-.61,9.36,9.36,0,0,0,6.48-6.29q1.53-4.71-.92-12.41-2.25-7-6.18-10a9.08,9.08,0,0,0-5.58-1.92,11.2,11.2,0,0,0-3.46.58q-6.81,2.16-7.77,9.44L348,48.74a11.18,11.18,0,0,0,8.16,3.79M288.11,31l5,15.82L308.26,42l2.07,6.51-15.11,4.82,5.46,17.12-6.92,2.2L288.3,55.51l-15.11,4.82-2.08-6.51L286.23,49l-5.05-15.82,6.93-2.2M243.69,50.22h0m0,0-6.83,24.11,20.07,16-8,2.54L234.86,80.79l-4.5,18-8,2.55,7.09-24.69L209.93,61l8-2.54,13.5,11.89,4.25-17.55,8-2.56m-48.88,15.6q8.64,0,12.25,10.71l8.6,27-6.89,2.19L200.3,79.14c-.91-2.88-2.26-4.82-4-5.83a6.3,6.3,0,0,0-3.19-.76,13.63,13.63,0,0,0-4.11.73,9.62,9.62,0,0,0-5.64,4.32,9.75,9.75,0,0,0-1,7.1l8.52,26.72-6.92,2.2-8.41-26.38q-2.13-6.69-7.64-6.7a12.37,12.37,0,0,0-3.76.66q-6.76,2.14-7.43,8.72l9.38,29.4-6.89,2.19L146.36,81.25l6.52-2.08,1.61,4.41q2.76-6.63,10.28-9a17.15,17.15,0,0,1,5.19-.89,11,11,0,0,1,8.38,3.7A15.92,15.92,0,0,1,182.07,71a16.23,16.23,0,0,1,7-4.21,18.66,18.66,0,0,1,5.7-1M118.46,94.53l1.91,6-31,9.9-1.91-6,31-9.89m-57.77,14h0m0,0L59.32,160.2q-.55,11.25-8.74,13.86l-1.34.3-2.73.34-1.77-5.59,1.9-.44a9.61,9.61,0,0,0,5-3.15q1.5-2,1.57-6.2l.22-4.58L26.38,119.49l7.51-2.39,19.67,27-.24-33.17,7.37-2.35m62.7,1.45,1.9,6-31,9.89-1.9-6,31-9.9m210-110a3.09,3.09,0,0,0-.91.14l-6.89,2.2a3,3,0,0,0-1.94,3.77l18.22,57.16a3,3,0,0,0,2.86,2.09,2.92,2.92,0,0,0,.91-.14l6.32-2a3,3,0,0,0,2.08-2.52,16.89,16.89,0,0,0,3.92.45,20.91,20.91,0,0,0,6.37-1.05A17.14,17.14,0,0,0,375.9,49c1.85-5.25,1.7-11.33-.46-18.1l-.19-.59c-2.24-7-5.66-12.21-10.15-15.39a17,17,0,0,0-10-3.26,19.62,19.62,0,0,0-6,1,19.13,19.13,0,0,0-8,4.74L336.29,2.09A3,3,0,0,0,333.43,0Zm12.1,31.08a7.57,7.57,0,0,1,5.61-6.35,8.68,8.68,0,0,1,2.55-.43,6.11,6.11,0,0,1,3.77,1.31c2.11,1.59,3.83,4.46,5.13,8.52,1.43,4.5,1.75,8.06.93,10.58A6.41,6.41,0,0,1,359,49.06a9.06,9.06,0,0,1-2.81.48,8,8,0,0,1-5.53-2.42l-5.11-16ZM288.11,28a2.89,2.89,0,0,0-.92.14l-6.92,2.21a3,3,0,0,0-1.95,3.77l4.14,12.95L270.2,51a3,3,0,0,0-1.75,1.48,3,3,0,0,0-.19,2.29l2.07,6.51a3,3,0,0,0,2.86,2.09,2.88,2.88,0,0,0,.91-.14l12.25-3.91,4.55,14.27a3,3,0,0,0,2.86,2.08,2.83,2.83,0,0,0,.91-.14l6.92-2.2a3.05,3.05,0,0,0,1.76-1.49,3,3,0,0,0,.19-2.28L299,55.26l12.26-3.91a3,3,0,0,0,1.94-3.77l-2.07-6.51a3.05,3.05,0,0,0-1.49-1.76,3,3,0,0,0-1.37-.33,3.09,3.09,0,0,0-.91.14L295.09,43l-4.13-13A3,3,0,0,0,288.11,28ZM243.69,47.22h-.18a3,3,0,0,0-.8.15l-8,2.55a3,3,0,0,0-2,2.15L229.66,64.8l-9.78-8.61a3,3,0,0,0-2-.75,3.21,3.21,0,0,0-.92.14l-8,2.54a3,3,0,0,0-2,2.31,3,3,0,0,0,1.07,2.89l18,14.46-6.54,22.77a3,3,0,0,0,2.88,3.83,3.19,3.19,0,0,0,.91-.14l8-2.55a3,3,0,0,0,2-2.13l3.32-13.33,10.43,9a3,3,0,0,0,1.95.72,3.19,3.19,0,0,0,.91-.14l8-2.54a3,3,0,0,0,1-5.2L240.29,73.23l6.25-22.06a3,3,0,0,0-2.81-4h0Zm0,6Zm-48.88,9.6a21.77,21.77,0,0,0-6.61,1.12,19.29,19.29,0,0,0-8.31,5,20,20,0,0,0-2.72,3.63A13.88,13.88,0,0,0,170,70.67a20.26,20.26,0,0,0-6.1,1,19.68,19.68,0,0,0-8.79,5.42,3,3,0,0,0-2.19-1,2.88,2.88,0,0,0-.91.14l-6.52,2.08a3,3,0,0,0-1.94,3.77l12.83,40.27a3,3,0,0,0,2.86,2.08,2.83,2.83,0,0,0,.91-.14l6.89-2.19a3,3,0,0,0,1.94-3.77l-9.17-28.77c.46-2.84,2.11-4.57,5.28-5.59a9.56,9.56,0,0,1,2.85-.51c1,0,3.31,0,4.78,4.61l8.41,26.39a3,3,0,0,0,1.48,1.75,3,3,0,0,0,1.38.33,2.83,2.83,0,0,0,.91-.14l6.92-2.2a3,3,0,0,0,1.95-3.77l-8.47-26.57a6.37,6.37,0,0,1,4.62-7.8,10.93,10.93,0,0,1,3.2-.59,3.41,3.41,0,0,1,1.71.37c1.08.62,2,2,2.66,4.13l8.47,26.57a3,3,0,0,0,2.85,2.09,2.94,2.94,0,0,0,.92-.14l6.88-2.19a3.05,3.05,0,0,0,1.76-1.49,3,3,0,0,0,.19-2.28l-8.6-27c-3.57-10.59-10.19-12.8-15.11-12.8ZM118.46,91.53a3.21,3.21,0,0,0-.92.14l-31,9.9a3,3,0,0,0-2,3.76l1.91,6a3,3,0,0,0,2.86,2.09,2.94,2.94,0,0,0,.91-.15l31-9.89A3,3,0,0,0,123,101.9a3,3,0,0,0,.19-2.29l-1.91-6a3,3,0,0,0-2.85-2.09Zm-57.77,14H60.6a2.92,2.92,0,0,0-.89.16l-7.3,2.33a3,3,0,0,0-2.09,2.88l.18,23.85L36.32,115.33a3,3,0,0,0-2.43-1.23,2.88,2.88,0,0,0-.91.14l-7.52,2.4A3,3,0,0,0,24,121.32l26.39,34.37-.17,3.48v.1c0,2.79-.64,4-1,4.47a6.88,6.88,0,0,1-3.39,2l-1.78.41A3,3,0,0,0,41.88,170l1.78,5.58a3,3,0,0,0,2.85,2.09,2.31,2.31,0,0,0,.37,0l2.72-.33.3-.05,1.34-.31.25-.06c8.4-2.68,10.52-10.49,10.83-16.57v-.07l1.37-51.52v-.2a3,3,0,0,0-3-3Zm0,6h0Zm62.7-4.55a3.14,3.14,0,0,0-.91.14l-31,9.9a3,3,0,0,0-1.75,1.48,3,3,0,0,0-.2,2.29l1.9,6a3,3,0,0,0,2.86,2.09,2.88,2.88,0,0,0,.91-.14l31-9.9a3,3,0,0,0,1.75-1.48,3,3,0,0,0,.2-2.29l-1.9-6a3,3,0,0,0-1.48-1.75,2.91,2.91,0,0,0-1.38-.34Z"/><line class="cls-2" x1="4.66" y1="207.15" x2="424.87" y2="63.91"/><path class="cls-3" d="M36.73,216.5a2,2,0,0,0-1.47-2.41L5.52,206.86,24.65,183a2,2,0,1,0-3.12-2.5L.44,206.81A2,2,0,0,0,1.53,210l32.78,8a2.12,2.12,0,0,0,1.12,0A2,2,0,0,0,36.73,216.5Z"/><path class="cls-4" d="M405.19,90.91a2,2,0,0,1-.31-2.82L424,64.21,394.27,57a2,2,0,0,1,.94-3.89l32.79,8a2,2,0,0,1,1.42,1.3,2,2,0,0,1-.33,1.9L408,90.59a2,2,0,0,1-.92.65A2,2,0,0,1,405.19,90.91Z"/></g></g></svg>