<svg xmlns="http://www.w3.org/2000/svg" xmlns:xlink="http://www.w3.org/1999/xlink" viewBox="0 0 93.51 66.39"><defs><style>.cls-1{fill:url(#New_Gradient_Swatch_2);}</style><linearGradient id="New_Gradient_Swatch_2" y1="33.19" x2="93.51" y2="33.19" gradientUnits="userSpaceOnUse"><stop offset="0" stop-color="#16ab5d"/><stop offset="0" stop-color="#16ab5d"/><stop offset="0.56" stop-color="#1e8d9a"/><stop offset="0.98" stop-color="#2880b9"/><stop offset="1" stop-color="#2880b9"/></linearGradient></defs><title>Icon-Numbers_1</title><g id="Layer_2" data-name="Layer 2"><g id="Capa_1" data-name="Capa 1"><path class="cls-1" d="M88.68,1.8V58.85a1.8,1.8,0,0,0,1.8,1.8h1.23v3.94H1.8v-4H3a1.81,1.81,0,0,0,1.8-1.8V1.8H88.68M61.75,25h2.44a1.8,1.8,0,0,0,1.8-1.8,1.35,1.35,0,0,1,.39-1.09,1.65,1.65,0,0,1,1.28-.41c1.24,0,1.56.33,1.56,1.58a1.21,1.21,0,0,1-.39,1,2.28,2.28,0,0,1-1.51.45H65.48a1.81,1.81,0,0,0-1.8,1.8v2a1.81,1.81,0,0,0,1.8,1.8h1.81a3,3,0,0,1,1.81.48c.11.1.41.36.41,1.22a1.89,1.89,0,0,1-.4,1.37,2,2,0,0,1-1.44.4,2,2,0,0,1-1.43-.43,1.35,1.35,0,0,1-.41-1.1,1.79,1.79,0,0,0-1.8-1.8H61.58a1.8,1.8,0,0,0-1.8,1.8,6.67,6.67,0,0,0,2.32,5.22,8.25,8.25,0,0,0,5.57,1.9,8.07,8.07,0,0,0,5.6-2,7,7,0,0,0,2.28-5.43,6.37,6.37,0,0,0-1.22-3.91,5.74,5.74,0,0,0-.65-.74,6.41,6.41,0,0,0,.45-.58,6,6,0,0,0,1.13-3.45,6.91,6.91,0,0,0-2.12-5.31,8.63,8.63,0,0,0-10.93.06A6.72,6.72,0,0,0,60,23.24a1.81,1.81,0,0,0,1.8,1.8m-44,.62h2.44a1.8,1.8,0,0,0,1.8-1.8,2.13,2.13,0,0,1,.5-1.63A1.94,1.94,0,0,1,24,21.74a1.41,1.41,0,0,1,1.12.4,1.65,1.65,0,0,1,.41,1.23,2.79,2.79,0,0,1-.34,1.32,13.67,13.67,0,0,1-1.79,2.37l-6.64,7.38a1.8,1.8,0,0,0-.47,1.21V37.4a1.81,1.81,0,0,0,1.8,1.8H30.68a1.81,1.81,0,0,0,1.8-1.8v-2a1.8,1.8,0,0,0-1.8-1.8H25.15l2.36-2.56c2.75-3,4.09-5.59,4.09-8A6.54,6.54,0,0,0,29.45,18,7.86,7.86,0,0,0,24,16.14a8.11,8.11,0,0,0-5.81,2.13,7.44,7.44,0,0,0-2.27,5.59,1.81,1.81,0,0,0,1.8,1.8m25.2-.36H39.38a1.81,1.81,0,0,0-1.8,1.8v2.31a1.81,1.81,0,0,0,1.8,1.8h3.55v4.26a1.8,1.8,0,0,0,1.8,1.8h2.46a1.8,1.8,0,0,0,1.8-1.8V31.21h3.55a1.81,1.81,0,0,0,1.8-1.8V27.1a1.81,1.81,0,0,0-1.8-1.8H49V21.5a1.81,1.81,0,0,0-1.8-1.8H44.73a1.81,1.81,0,0,0-1.8,1.8v3.8M57.29,62.14H73.16A2.54,2.54,0,0,0,75.7,59.6a1.55,1.55,0,0,0,0-.31v-4.2a2.55,2.55,0,0,0-2.54-2.55H58a2.55,2.55,0,0,0-2.54,2.55v5.25a1.8,1.8,0,0,0,1.8,1.8M89.74,0h-86A.74.74,0,0,0,3,.74V58.83H.74a.74.74,0,0,0-.74.74v6.82H92.76a.74.74,0,0,0,.75-.74V59.6a.77.77,0,0,0-.77-.75H90.48V.74A.74.74,0,0,0,89.74,0Zm-28,23.24a4.91,4.91,0,0,1,1.67-3.79,6.07,6.07,0,0,1,4.24-1.51,6,6,0,0,1,4.26,1.44,5.17,5.17,0,0,1,1.54,4,4.24,4.24,0,0,1-.81,2.43,4.94,4.94,0,0,1-2.21,1.75,4.72,4.72,0,0,1,2.45,1.66,4.65,4.65,0,0,1,.86,2.84,5.22,5.22,0,0,1-1.69,4.1,6.31,6.31,0,0,1-4.39,1.51,6.5,6.5,0,0,1-4.39-1.46,4.86,4.86,0,0,1-1.7-3.86H64a3.11,3.11,0,0,0,1,2.42,4.38,4.38,0,0,0,5.36,0,3.58,3.58,0,0,0,.93-2.65,3.21,3.21,0,0,0-1-2.57,4.4,4.4,0,0,0-3-.92H65.48v-2h1.84A4,4,0,0,0,70,25.7a3,3,0,0,0,1-2.38q0-3.37-3.36-3.38a3.47,3.47,0,0,0-2.53.91,3.19,3.19,0,0,0-.94,2.39Zm-44,.62a5.66,5.66,0,0,1,1.71-4.29A6.33,6.33,0,0,1,24,17.94a6.12,6.12,0,0,1,4.23,1.4,4.8,4.8,0,0,1,1.56,3.74q0,2.84-3.62,6.75L21,35.41h9.64v2H18.1V35.65l6.65-7.39a15.44,15.44,0,0,0,2-2.72,4.47,4.47,0,0,0,.56-2.17,3.45,3.45,0,0,0-.9-2.46,3.17,3.17,0,0,0-2.43-1,3.78,3.78,0,0,0-2.83,1,4,4,0,0,0-1,2.88Zm21.65,5.55V27.1h5.35V21.5h2.46v5.6h5.35v2.31H47.19v6.06H44.73V29.41ZM57.29,60.34V55.09a.74.74,0,0,1,.74-.75h15.1a.74.74,0,0,1,.74.75V59.6h0a.74.74,0,0,1-.74.74H57.29Z"/></g></g></svg>