<svg xmlns="http://www.w3.org/2000/svg" xmlns:xlink="http://www.w3.org/1999/xlink" viewBox="0 0 448 448.01"><defs><style>.cls-1{fill:url(#New_Gradient_Swatch_2);}.cls-2,.cls-3,.cls-4{fill:none;stroke-miterlimit:10;}.cls-2{stroke-width:8px;stroke:url(#New_Gradient_Swatch_2-2);}.cls-3{stroke-width:7px;stroke:url(#New_Gradient_Swatch_2-3);}.cls-4{stroke-linecap:round;stroke-width:10px;stroke:url(#New_Gradient_Swatch_2-4);}</style><linearGradient id="New_Gradient_Swatch_2" y1="224.01" x2="448" y2="224.01" gradientUnits="userSpaceOnUse"><stop offset="0" stop-color="#16ab5d"/><stop offset="0" stop-color="#16ab5d"/><stop offset="0.56" stop-color="#1e8d9a"/><stop offset="0.98" stop-color="#2880b9"/><stop offset="1" stop-color="#2880b9"/></linearGradient><linearGradient id="New_Gradient_Swatch_2-2" x1="268" y1="168" x2="324" y2="168" xlink:href="#New_Gradient_Swatch_2"/><linearGradient id="New_Gradient_Swatch_2-3" x1="124.49" y1="167.99" x2="179.5" y2="167.99" xlink:href="#New_Gradient_Swatch_2"/><linearGradient id="New_Gradient_Swatch_2-4" x1="123.06" y1="288.75" x2="324.99" y2="288.75" xlink:href="#New_Gradient_Swatch_2"/></defs><title>Icon-Passive</title><g id="Layer_2" data-name="Layer 2"><g id="Layer_1-2" data-name="Layer 1"><path class="cls-1" d="M222.43,0C101.65.27-.26,103.45,0,225.19.26,346.77,103.58,448.48,226.32,448,346,447.55,448.37,344.14,448,224.05,447.63,101.42,345.25-.27,222.43,0ZM223,435.22c-117.21,0-212.22-95-212.22-212.22S105.79,10.78,223,10.78s212.22,95,212.22,212.22S340.21,435.22,223,435.22Z"/><path class="cls-2" d="M320,167.88A24,24,0,1,1,295.63,144,24,24,0,0,1,320,167.88Z"/><path class="cls-3" d="M176,168a24,24,0,1,1-23.71-24A24,24,0,0,1,176,168Z"/><line class="cls-4" x1="128.06" y1="289.77" x2="319.99" y2="287.73"/></g></g></svg>