<svg xmlns="http://www.w3.org/2000/svg" xmlns:xlink="http://www.w3.org/1999/xlink" viewBox="0 0 146.73 117.5"><defs><style>.cls-1{fill:none;stroke-miterlimit:10;stroke-width:3px;stroke:url(#New_Gradient_Swatch_2);}</style><linearGradient id="New_Gradient_Swatch_2" y1="58.75" x2="146.73" y2="58.75" gradientUnits="userSpaceOnUse"><stop offset="0" stop-color="#16ab5d"/><stop offset="0" stop-color="#16ab5d"/><stop offset="0.56" stop-color="#1e8d9a"/><stop offset="0.98" stop-color="#2880b9"/><stop offset="1" stop-color="#2880b9"/></linearGradient></defs><title>Icon-Arithmetic</title><g id="Layer_2" data-name="Layer 2"><g id="Capa_1" data-name="Capa 1"><path class="cls-1" d="M141.11,103.82h-10.5v-96c0-4.13-3.33-6.34-7.47-6.34h-.74c-4.14,0-8.84,2.21-8.84,6.34V18.55h-9.75V17.7a6.46,6.46,0,0,0-6.45-6.46H95.65A6.46,6.46,0,0,0,89.2,17.7v.85H74.58V17.7a6.46,6.46,0,0,0-6.45-6.46H66.42A6.47,6.47,0,0,0,60,17.7v.85H57.53V17.7a6.46,6.46,0,0,0-6.46-6.46h-1.7a6.46,6.46,0,0,0-6.46,6.46v.85H33.17V7.84c0-4.13-2.46-6.34-6.59-6.34h-.75c-4.14,0-9.71,0-9.71,6.34v96H7.86c-2.89,0-6.36.15-6.36,5.08v.75c0,2.9,0,6.35,6.36,6.35H141.11c2.9,0,4.12-3.45,4.12-6.35v-.75C145.23,106,144,103.82,141.11,103.82Zm-27.55,0H33.17V86.76h7.31v.86a6.45,6.45,0,0,0,6.45,6.45h1.7a6.46,6.46,0,0,0,6.46-6.45v-.86h2.44v.86A6.45,6.45,0,0,0,64,94.07h1.71a6.45,6.45,0,0,0,6.45-6.45v-.86H86.76v.86a6.45,6.45,0,0,0,6.45,6.45h1.71a6.45,6.45,0,0,0,6.45-6.45v-.86h12.19v17.06Zm0-24.37H101.38V78.6a6.46,6.46,0,0,0-6.46-6.45h-1.7a6.46,6.46,0,0,0-6.46,6.45v.86H72.15V78.6a6.46,6.46,0,0,0-6.46-6.45H64a6.45,6.45,0,0,0-6.45,6.45v.86H55.09V78.6a6.45,6.45,0,0,0-6.45-6.45H46.93a6.46,6.46,0,0,0-6.46,6.45v.86h-7.3V55.1H45.35V56A6.45,6.45,0,0,0,51.8,62.4h1.71A6.45,6.45,0,0,0,60,56V55.1H74.58V56A6.45,6.45,0,0,0,81,62.4h1.71A6.45,6.45,0,0,0,89.19,56V55.1h24.36V79.46Zm0-31.66H89.2v-.86a6.46,6.46,0,0,0-6.46-6.45H81a6.46,6.46,0,0,0-6.46,6.45v.86H60v-.86a6.46,6.46,0,0,0-6.46-6.45H51.8a6.45,6.45,0,0,0-6.45,6.45v.86H33.17V25.86h9.74v.85a6.46,6.46,0,0,0,6.46,6.46h1.7a6.46,6.46,0,0,0,6.46-6.46v-.85H60v.85a6.46,6.46,0,0,0,6.46,6.46h1.7a6.46,6.46,0,0,0,6.46-6.46v-.85H89.19v.85a6.46,6.46,0,0,0,6.46,6.46h1.7a6.46,6.46,0,0,0,6.46-6.46v-.85h9.74V47.79Z"/></g></g></svg>