<svg xmlns="http://www.w3.org/2000/svg" xmlns:xlink="http://www.w3.org/1999/xlink" viewBox="0 0 175.68 157"><defs><style>.cls-1,.cls-4{fill:none;stroke-linecap:round;stroke-linejoin:round;stroke-width:3px;}.cls-1{stroke:url(#linear-gradient);}.cls-2{fill:url(#linear-gradient-2);}.cls-3{fill:url(#linear-gradient-3);}.cls-4{stroke:url(#New_Gradient_Swatch_2);}.cls-5{fill:url(#New_Gradient_Swatch_2-2);}.cls-6{fill:url(#New_Gradient_Swatch_2-3);}</style><linearGradient id="linear-gradient" x1="177.17" y1="77.85" x2="-1.5" y2="77.85" gradientUnits="userSpaceOnUse"><stop offset="0" stop-color="#16ab5d"/><stop offset="0.56" stop-color="#1e8d9a"/><stop offset="0.98" stop-color="#2880b9"/><stop offset="1" stop-color="#2880b9"/></linearGradient><linearGradient id="linear-gradient-2" x1="177.17" y1="142.68" x2="-1.5" y2="142.68" xlink:href="#linear-gradient"/><linearGradient id="linear-gradient-3" x1="177.17" y1="13.02" x2="-1.5" y2="13.02" xlink:href="#linear-gradient"/><linearGradient id="New_Gradient_Swatch_2" x1="115.38" y1="78.5" x2="167.38" y2="78.5" gradientUnits="userSpaceOnUse"><stop offset="0" stop-color="#16ab5d"/><stop offset="0" stop-color="#16ab5d"/><stop offset="0.56" stop-color="#1e8d9a"/><stop offset="0.98" stop-color="#2880b9"/><stop offset="1" stop-color="#2880b9"/></linearGradient><linearGradient id="New_Gradient_Swatch_2-2" x1="115.38" y1="8.77" x2="167.38" y2="8.77" xlink:href="#New_Gradient_Swatch_2"/><linearGradient id="New_Gradient_Swatch_2-3" x1="115.38" y1="148.23" x2="167.38" y2="148.23" xlink:href="#New_Gradient_Swatch_2"/></defs><title>Icon-LinearSystemGraph</title><g id="Layer_2" data-name="Layer 2"><g id="Layer_1-2" data-name="Layer 1"><line class="cls-1" x1="2.5" y1="149.05" x2="173.18" y2="6.65"/><polygon class="cls-2" points="17.99 152.1 18.15 149.1 3.38 148.31 5.25 133.64 2.27 133.26 0 151.13 17.99 152.1"/><polygon class="cls-3" points="173.4 22.44 170.43 22.07 172.29 7.39 157.52 6.6 157.69 3.6 175.68 4.57 173.4 22.44"/><line class="cls-4" x1="117.85" y1="3.1" x2="164.91" y2="153.89"/><polygon class="cls-5" points="109.1 16.25 111.8 17.55 118.19 4.21 131.03 11.55 132.52 8.94 116.88 0 109.1 16.25"/><polygon class="cls-6" points="150.24 148.06 151.72 145.45 164.56 152.79 170.95 139.45 173.66 140.75 165.88 157 150.24 148.06"/></g></g></svg>