<svg xmlns="http://www.w3.org/2000/svg" xmlns:xlink="http://www.w3.org/1999/xlink" viewBox="0 0 369.38 481.39"><defs><style>.cls-1{fill:url(#New_Gradient_Swatch_2);}.cls-2{fill:url(#New_Gradient_Swatch_2-2);}.cls-3{fill:url(#New_Gradient_Swatch_2-3);}.cls-4{fill:url(#New_Gradient_Swatch_2-4);}.cls-5{fill:url(#New_Gradient_Swatch_2-5);}</style><linearGradient id="New_Gradient_Swatch_2" y1="240.69" x2="369.38" y2="240.69" gradientUnits="userSpaceOnUse"><stop offset="0" stop-color="#eb4e8d"/><stop offset="0.35" stop-color="#e94f8f"/><stop offset="0.69" stop-color="#bc66a8"/><stop offset="1" stop-color="#a161a8"/></linearGradient><linearGradient id="New_Gradient_Swatch_2-2" x1="32.79" y1="295.6" x2="335.99" y2="295.6" xlink:href="#New_Gradient_Swatch_2"/><linearGradient id="New_Gradient_Swatch_2-3" x1="152.04" y1="289.06" x2="224.1" y2="289.06" xlink:href="#New_Gradient_Swatch_2"/><linearGradient id="New_Gradient_Swatch_2-4" x1="95.99" y1="259.16" x2="160.66" y2="259.16" xlink:href="#New_Gradient_Swatch_2"/><linearGradient id="New_Gradient_Swatch_2-5" x1="191.15" y1="329.86" x2="271.96" y2="329.86" xlink:href="#New_Gradient_Swatch_2"/></defs><title>Icon-Redundancy</title><g id="Layer_2" data-name="Layer 2"><g id="Outline"><path class="cls-1" d="M308.23,160.4l10.16-14.48h0a15.44,15.44,0,0,0,9.12,2.88,16,16,0,0,0,13.12-6.8l9.2-13.12A16,16,0,0,0,352.47,117a15.55,15.55,0,0,0-6.56-10.32L306.55,79.12A15.8,15.8,0,0,0,284.31,83l-9.2,13A16,16,0,0,0,279,118.24L269,132.72a181.76,181.76,0,0,0-53-17.84V104h8a40,40,0,0,0,40-40V40A40,40,0,0,0,224,0H144a40,40,0,0,0-40,40V64a40,40,0,0,0,40,40h8v10.88a181.59,181.59,0,0,0-53,18L89,118.4h0a16,16,0,0,0,4-22.27L92.87,96l-9.2-13.12A15.8,15.8,0,0,0,61.43,79L22.07,106.48a15.51,15.51,0,0,0-6.56,10.32,16,16,0,0,0,2.64,11.92l9.2,13.12a16,16,0,0,0,13.12,6.8,15.44,15.44,0,0,0,9.12-2.88h0l10.16,14.48a184,184,0,0,0-33.6,230.24,8,8,0,0,0,13.76-8,168,168,0,1,1,28.8,35.84,8,8,0,0,0-11,11.6c73.19,70.49,189.68,68.3,260.17-4.9s68.29-189.68-4.9-260.17Q310.66,162.59,308.23,160.4Zm-10.8-68.24L336.71,120l-9.2,12.8h0L288,105.28ZM292.15,128l13.12,9.2L296,150.08c-4.24-3.2-8.56-6.32-13.12-9.2ZM144,88a24,24,0,0,1-24-24V40a24,24,0,0,1,24-24h80a24,24,0,0,1,24,24V64a24,24,0,0,1-24,24h-8V72h8a8,8,0,0,0,0-16H144a8,8,0,0,0,0,16h8V88ZM40.47,132.8,31.27,120,70.55,92.4,80,105.28l-6.56,4.56h0l-4.72,3.28Zm22.24,3.92L75.83,128l9.36,13.28c-4.56,2.88-8.88,6-13.12,9.2Zm105.28-24V72h32v40.72a118.42,118.42,0,0,0-16-.72A118.42,118.42,0,0,0,168,112.72Z"/><path class="cls-2" d="M296.79,220a8,8,0,0,0,13.2-9,148.62,148.62,0,0,0-18.48-22.48h0a152,152,0,0,0-214.56,0h0A152,152,0,0,0,77,402.8h0a152,152,0,0,0,214.24,0h0A151.53,151.53,0,0,0,336,296a153.55,153.55,0,0,0-6.8-45.2,8,8,0,0,0-10-5.31l-.09,0a8,8,0,0,0-5.2,10A140.23,140.23,0,0,1,320,288H296a8,8,0,0,0,0,16h24a135.38,135.38,0,0,1-34.08,82.16l-16.64-16.64a8,8,0,0,0-11.36,11.36l16.64,16.64A135.35,135.35,0,0,1,192,432V408a8,8,0,0,0-16,0v24a135.33,135.33,0,0,1-82.16-34.08l16.64-16.64a8,8,0,0,0-11.36-11.36L82.47,386.56A135.32,135.32,0,0,1,48.39,304H72a8,8,0,1,0,0-16H48.39a135.38,135.38,0,0,1,34.08-82.16l16.64,16.64a8,8,0,0,0,11.31.05l0-.05a8,8,0,0,0,0-11.31l0,0L93.83,194.48A135.33,135.33,0,0,1,176,160.4V184a8,8,0,0,0,16,0V160a136.45,136.45,0,0,1,82.32,34.08l-16.8,16.8a8,8,0,0,0-.05,11.31l.05.05a8,8,0,0,0,11.31,0l.05,0,16.8-16.8A142.84,142.84,0,0,1,296.79,220Z"/><path class="cls-3" d="M156,344.48a8,8,0,0,0,10.95-2.86v0l12.72-22.16A27.31,27.31,0,0,0,184,320a24,24,0,0,0,20.88-12h0a24,24,0,0,0-2.64-27.52L223,244.56a8,8,0,0,0-13.92-8l-20.72,35.92a24,24,0,0,0-22.48,39l-12.8,22.08A8,8,0,0,0,156,344.48ZM177,292a7.85,7.85,0,1,1,0,.05l0-.05Z"/><path class="cls-4" d="M160,219.2A8,8,0,0,0,149.51,215,88,88,0,0,0,96,296a8,8,0,0,0,16,0,72,72,0,0,1,44-66.32A8,8,0,0,0,160,219.2Z"/><path class="cls-5" d="M200,382.4h1.6A88,88,0,0,0,271.11,284a8,8,0,1,0-15.84,2.24A69.23,69.23,0,0,1,256,296a72,72,0,0,1-57.6,70.56,8,8,0,0,0,1.6,16Z"/></g></g></svg>