<svg xmlns="http://www.w3.org/2000/svg" xmlns:xlink="http://www.w3.org/1999/xlink" viewBox="0 0 465 380.75"><defs><style>.cls-1{fill:url(#New_Gradient_Swatch_1);}.cls-2{fill:url(#New_Gradient_Swatch_1-2);}.cls-3{fill:url(#New_Gradient_Swatch_1-3);}</style><linearGradient id="New_Gradient_Swatch_1" x1="225" y1="201.97" x2="240" y2="201.97" gradientUnits="userSpaceOnUse"><stop offset="0" stop-color="#ffbe5f"/><stop offset="1" stop-color="#ff57a4"/></linearGradient><linearGradient id="New_Gradient_Swatch_1-2" x1="0" y1="175.37" x2="465" y2="175.37" xlink:href="#New_Gradient_Swatch_1"/><linearGradient id="New_Gradient_Swatch_1-3" x1="0" y1="356.42" x2="465" y2="356.42" xlink:href="#New_Gradient_Swatch_1"/></defs><title>Icon-Literary</title><g id="Layer_2" data-name="Layer 2"><g id="Capa_1" data-name="Capa 1"><path class="cls-1" d="M240,314V90a7.5,7.5,0,0,0-15,0v224a7.5,7.5,0,0,0,15,0Z"/><path class="cls-2" d="M457.5,33.66c-15.86,0-35.61-6.85-56.53-14.09C374.48,10.4,344.45,0,313.3,0c-36,0-58,15.79-70.11,29A91.48,91.48,0,0,0,232.5,43.36,90.85,90.85,0,0,0,221.81,29C209.72,15.79,187.73,0,151.7,0,120.56,0,90.53,10.4,64,19.57,43.11,26.81,23.36,33.66,7.5,33.66A7.5,7.5,0,0,0,0,41.16V343.25a7.5,7.5,0,0,0,7.5,7.5c18.38,0,39.3-7.24,61.44-14.91,25.38-8.79,54.14-18.75,82.76-18.75,24.54,0,44.4,8.13,59,24.15a7.5,7.5,0,0,0,11.08-10.11c-12.1-13.25-34.08-29-70.11-29-31.15,0-61.18,10.4-87.67,19.57-17.73,6.15-34.63,12-49,13.64v-287c16.49-1.57,34.76-7.89,53.94-14.53C94.32,25,123.08,15,151.7,15c57.88,0,73,46,73.63,47.89a7.5,7.5,0,0,0,14.34,0C239.82,62.42,255.05,15,313.3,15c28.62,0,57.38,10,82.76,18.75,19.19,6.64,37.45,13,53.94,14.53v287c-14.4-1.64-31.3-7.49-49-13.64-26.49-9.17-56.52-19.57-87.67-19.57-36,0-58,15.79-70.11,29a7.5,7.5,0,0,0,11.08,10.12c14.63-16,34.49-24.16,59-24.16,28.62,0,57.38,10,82.76,18.75,22.14,7.67,43.06,14.91,61.44,14.91a7.5,7.5,0,0,0,7.5-7.5V41.16A7.5,7.5,0,0,0,457.5,33.66Z"/><path class="cls-3" d="M457.5,365.75c-15.86,0-35.61-6.84-56.53-14.09-26.49-9.17-56.52-19.57-87.67-19.57-33.84,0-55.29,13.93-67.79,26.6h-26c-12.5-12.67-34-26.6-67.79-26.6-31.15,0-61.17,10.4-87.67,19.57-20.92,7.25-40.67,14.09-56.53,14.09a7.5,7.5,0,0,0,0,15c18.38,0,39.3-7.25,61.44-14.91,25.38-8.79,54.14-18.75,82.76-18.75,24.54,0,44.4,8.13,59,24.15a7.52,7.52,0,0,0,5.54,2.45h32.46a7.51,7.51,0,0,0,5.53-2.44c14.64-16,34.5-24.16,59-24.16,28.62,0,57.38,10,82.76,18.75,22.14,7.67,43.06,14.91,61.44,14.91a7.5,7.5,0,0,0,0-15Z"/></g></g></svg>