<svg xmlns="http://www.w3.org/2000/svg" xmlns:xlink="http://www.w3.org/1999/xlink" viewBox="0 0 330.32 512"><defs><style>.cls-1{fill:url(#New_Gradient_Swatch_2);}</style><linearGradient id="New_Gradient_Swatch_2" y1="256" x2="330.32" y2="256" gradientUnits="userSpaceOnUse"><stop offset="0" stop-color="#eb4e8d"/><stop offset="0.35" stop-color="#e94f8f"/><stop offset="0.69" stop-color="#bc66a8"/><stop offset="1" stop-color="#a161a8"/></linearGradient></defs><title>Icon-Connotation</title><g id="Layer_2" data-name="Layer 2"><g id="Layer_1-2" data-name="Layer 1"><path class="cls-1" d="M64.34,341.56a7.5,7.5,0,0,0-5.13,14.1l61.58,22.41A7.5,7.5,0,1,0,125.92,364ZM329.73,92.93a16.18,16.18,0,0,0-15.78-12H278.87c0-.8,0-1.6,0-2.4v-11a27.19,27.19,0,0,1,13.31-23.32,14.61,14.61,0,0,0-7.43-27.2H243.87A99.5,99.5,0,0,0,202.29,26c-1.08-2.1-2.17-4.16-3.27-6.14a38.81,38.81,0,0,0-67.71,0c-1.1,2-2.18,4-3.24,6.07a100.18,100.18,0,0,0-41.61-9H45.54a14.61,14.61,0,0,0-7.43,27.2,27.18,27.18,0,0,1,13.3,23.32v11c0,.8,0,1.6,0,2.4H16.37a16.35,16.35,0,0,0-8.32,30.43,35.64,35.64,0,0,1,17.46,30.57v13.75a119.48,119.48,0,0,0,88.54,115.25l-4,14.67a14.32,14.32,0,0,0,21.22,16l5.45-3.28a4.39,4.39,0,0,1,4.43-.07v42c-8.56-9.42-19.53-18.27-33-23.19-29.4-10.7-61.33.19-77.76,7.64a16.51,16.51,0,0,0-8.07,22.17c7.8,16.26,25.27,45.13,54.66,55.83a77.48,77.48,0,0,0,26.52,4.43c14,0,27.29-3.2,37.69-6.73v61.23a7.5,7.5,0,0,0,15,0V306.28a29.27,29.27,0,0,0,17.95,0V488a9,9,0,0,1-17,4.09A7.5,7.5,0,0,0,143.84,499a24,24,0,0,0,45.3-11V443.35c10.4,3.53,23.68,6.73,37.68,6.73a77.25,77.25,0,0,0,26.52-4.44c29.4-10.7,46.87-39.57,54.66-55.83a16.5,16.5,0,0,0-8.07-22.17c-16.42-7.44-48.36-18.33-77.75-7.63-13.51,4.92-24.48,13.76-33,23.19v-85a4.39,4.39,0,0,1,4.43.07l5.45,3.28a14.32,14.32,0,0,0,21.22-16l-4-14.68A119.29,119.29,0,0,0,300.92,186a7.5,7.5,0,1,0-14.51-3.8,104.29,104.29,0,0,1-96.56,77.64V203.47A121.84,121.84,0,0,0,174,143.17a107,107,0,0,1,89.1-47.28H314a1.35,1.35,0,0,1,.69,2.51,50.72,50.72,0,0,0-24.82,43.49v7.28a7.5,7.5,0,1,0,15,0v-7.28a35.66,35.66,0,0,1,17.45-30.58A16.17,16.17,0,0,0,329.73,92.93ZM141.19,384.41C126.62,390,103,396.15,82.11,388.54c-25.31-9.21-40.78-36.79-46.26-48.22a1.49,1.49,0,0,1,.74-2c11.54-5.24,41.13-16.41,66.43-7.2,17.56,6.39,30.29,21.51,38.17,33.75ZM144.4,27.17a23.8,23.8,0,0,1,41.53,0c1.09,1.95,2.17,4,3.23,6.08a100.61,100.61,0,0,0-24,22,99.69,99.69,0,0,0-24-22.09Q142.78,30.06,144.4,27.17ZM46.9,31.92H86.46a84.8,84.8,0,0,1,40.7,10.31,7.21,7.21,0,0,0,1.15.67l.19.08a84.86,84.86,0,0,1,27.86,25.57,99.28,99.28,0,0,0-12.13,39.59,122,122,0,0,0-77-27.26h-.82c0-.8,0-1.59,0-2.39v-11A42.29,42.29,0,0,0,46.9,31.92ZM227.31,374.11c25.3-9.22,54.89,2,66.43,7.19a1.5,1.5,0,0,1,.8.86,1.47,1.47,0,0,1-.06,1.17c-5.48,11.43-21,39-46.27,48.22-20.91,7.61-44.51,1.45-59.07-4.14V407.86C197,395.62,209.75,380.5,227.31,374.11ZM201.54,273.83l3.78,14-4-2.42a19.34,19.34,0,0,0-20,0l-8.55,5.15a14.55,14.55,0,0,1-15.11,0l-8.55-5.15a19.34,19.34,0,0,0-20,0l-4,2.42,3.78-14a120.55,120.55,0,0,0,16,1.07h40.75A119.33,119.33,0,0,0,201.54,273.83Zm-26.69-70.36v56.44H144.79A104.39,104.39,0,0,1,40.51,155.64V141.89A50.7,50.7,0,0,0,15.68,98.4a1.36,1.36,0,0,1,.69-2.52h50.9A107.71,107.71,0,0,1,174.85,203.47Zm89.06-136v11c0,.8,0,1.6,0,2.4h-.81a121.8,121.8,0,0,0-97.93,48.84q-3-4-6.29-7.66V117a85.13,85.13,0,0,1,85-85h39.55A42.24,42.24,0,0,0,263.91,67.44ZM207,421.54a7.5,7.5,0,0,0,2.57-.46l61.57-22.41a7.5,7.5,0,1,0-5.13-14.1L204.41,407A7.51,7.51,0,0,0,207,421.54Z"/></g></g></svg>