<?xml version="1.0" encoding="utf-8"?>
<!-- Generator: Adobe Illustrator 22.0.0, SVG Export Plug-In . SVG Version: 6.00 Build 0)  -->
<svg version="1.1" id="Capa_1" xmlns="http://www.w3.org/2000/svg" xmlns:xlink="http://www.w3.org/1999/xlink" x="0px" y="0px"
	 viewBox="0 0 142.1 142.1" style="enable-background:new 0 0 142.1 142.1;" xml:space="preserve">
<style type="text/css">
	.st0{opacity:0.96;}
	.st1{fill:url(#SVGID_1_);}
</style>
<g class="st0">
	<g>
		<linearGradient id="SVGID_1_" gradientUnits="userSpaceOnUse" x1="3.9193" y1="68" x2="138.1903" y2="68">
			<stop  offset="0" style="stop-color:#16AB5D"/>
			<stop  offset="2.545450e-03" style="stop-color:#16AB5D"/>
			<stop  offset="0.5556" style="stop-color:#1E8D9A"/>
			<stop  offset="0.9818" style="stop-color:#2880B9"/>
			<stop  offset="1" style="stop-color:#2880B9"/>
		</linearGradient>
		<path class="st1" d="M135.8,119.2l-12.3-9.3c-2.7-2-6.5-1.5-8.5,1.2c-1.4,1.8-1.6,4.2-0.7,6.1H92.7C109.3,99.4,122.5,61.5,131.9,4
			c0.6-3.3-1.7-6.5-5-7c-3.3-0.5-6.5,1.7-7,5c-13.9,83.9-32.7,106.3-42.7,112.2c-0.5,0.3-1,0.6-1.5,0.8V20.8c1,0.6,2.1,1,3.3,1
			c1.2,0,2.5-0.4,3.6-1.2c2.7-2,3.3-5.8,1.3-8.5L75-0.2c-1.1-1.6-2.9-2.5-4.9-2.5c-1.9,0-3.7,0.9-4.9,2.4l-9.3,12.3
			c-2,2.7-1.5,6.5,1.2,8.5c1.9,1.5,4.5,1.6,6.5,0.5v94C43.7,108.8,24,46.7,16,2C15.4-1.3,12.2-3.6,8.9-3C5.6-2.4,3.4,0.8,4,4.1
			c0.2,1.2,5.5,30.4,15.3,60.2c8.3,25.1,17.1,42.6,26.5,52.8H10c-3.4,0-6.1,2.7-6.1,6.1c0,3.4,2.7,6.1,6.1,6.1h104.9
			c-1.6,2.1-1.7,5-0.1,7.2c1.2,1.6,3.1,2.5,4.9,2.5c1.2,0,2.5-0.4,3.6-1.2l12.3-9c1.6-1.1,2.5-2.9,2.5-4.9
			C138.2,122.1,137.3,120.3,135.8,119.2z"/>
	</g>
</g>
</svg>
