<svg xmlns="http://www.w3.org/2000/svg" xmlns:xlink="http://www.w3.org/1999/xlink" viewBox="0 0 6.67 8.6"><defs><style>.cls-1{fill:none;stroke-miterlimit:10;stroke-width:0.25px;stroke:url(#New_Gradient_Swatch_3);}</style><linearGradient id="New_Gradient_Swatch_3" y1="4.3" x2="6.67" y2="4.3" gradientUnits="userSpaceOnUse"><stop offset="0" stop-color="#eb4e8d"/><stop offset="0.35" stop-color="#e94f8f"/><stop offset="0.69" stop-color="#bc66a8"/><stop offset="1" stop-color="#a161a8"/></linearGradient></defs><title>Icon-Punctuation_1</title><g id="Layer_2" data-name="Layer 2"><g id="Layer_1-2" data-name="Layer 1"><path class="cls-1" d="M.12,7.73A.7.7,0,0,1,.83,7a.69.69,0,0,1,.71.74.7.7,0,0,1-.71.74A.7.7,0,0,1,.12,7.73ZM.42,6,.26.26H1.41L1.24,6Zm3.48,0,0-.31a2.76,2.76,0,0,1,.74-2.08A2.61,2.61,0,0,0,5.46,2c0-.61-.38-1-1.14-1a2.11,2.11,0,0,0-1.21.37L2.82.61A3.15,3.15,0,0,1,4.54.12a1.77,1.77,0,0,1,2,1.77A3.26,3.26,0,0,1,5.51,4a2.33,2.33,0,0,0-.68,1.76v.31ZM3.64,7.73A.72.72,0,0,1,4.36,7a.71.71,0,0,1,.71.76.72.72,0,1,1-1.43,0Z"/></g></g></svg>