<svg xmlns="http://www.w3.org/2000/svg" xmlns:xlink="http://www.w3.org/1999/xlink" viewBox="0 0 512 475.56"><defs><style>.cls-1{fill:url(#New_Gradient_Swatch_2);}</style><linearGradient id="New_Gradient_Swatch_2" y1="237.78" x2="512" y2="237.78" gradientUnits="userSpaceOnUse"><stop offset="0" stop-color="#eb4e8d"/><stop offset="0.35" stop-color="#e94f8f"/><stop offset="0.69" stop-color="#bc66a8"/><stop offset="1" stop-color="#a161a8"/></linearGradient></defs><title>Icon-Diction</title><g id="Layer_2" data-name="Layer 2"><g id="Layer_1-2" data-name="Layer 1"><path class="cls-1" d="M40.6,118.7a7.51,7.51,0,0,0,.75-10.59A40,40,0,0,1,31.13,81.7C31.13,57,55,36.86,84.28,36.86S137.42,57,137.42,81.7a40,40,0,0,1-9.56,25.62,7.43,7.43,0,0,0-1.57,3.24,65.64,65.64,0,0,0-1,24.16,23,23,0,0,1-10.28-9.11,7.5,7.5,0,0,0-9-3,61,61,0,0,1-21.77,4,61.93,61.93,0,0,1-17.12-2.38A7.5,7.5,0,1,0,63,138.58a77.48,77.48,0,0,0,42.91-.12c5,5.92,11.44,9.9,19.79,12.34a12.23,12.23,0,0,0,15.21-15.06c-2-6.91-1.35-14.63-.29-20.39A54.52,54.52,0,0,0,152.42,81.7c0-33-30.57-59.84-68.15-59.84S16.13,48.7,16.13,81.7A54.77,54.77,0,0,0,30,117.94,7.5,7.5,0,0,0,40.6,118.7ZM84,380.46a7.5,7.5,0,0,0-7,8A5.23,5.23,0,0,1,71.42,394a7.5,7.5,0,0,0-1,15c.46,0,.93,0,1.39,0A20.23,20.23,0,0,0,92,387.43,7.51,7.51,0,0,0,84,380.46ZM454.54,44.65H379.3a7.5,7.5,0,0,0,0,15h75.24a7.5,7.5,0,0,0,0-15ZM110.65,89.2a7.5,7.5,0,0,0,0-15H57.9a7.5,7.5,0,1,0,0,15ZM52.77,410.73a7.5,7.5,0,1,0-10.61,10.6l4.28,4.28A7.5,7.5,0,1,0,57.05,415ZM293.68,210.27H225.24a7.5,7.5,0,0,0-7.5,7.5V286.2a7.5,7.5,0,0,0,7.5,7.5h68.44a7.5,7.5,0,0,0,7.5-7.5V217.77A7.5,7.5,0,0,0,293.68,210.27Zm-7.5,68.43H232.74V225.27h53.44ZM482.16,0H351.68a29.88,29.88,0,0,0-29.84,29.84v12c-1-.09-2.07-.15-3.11-.15A32.58,32.58,0,0,0,286.18,74.2v86H232.74v-86a32.55,32.55,0,1,0-65.09,0v86h-86a32.55,32.55,0,1,0,0,65.09h86V278.7h-86A32.54,32.54,0,0,0,51,322.25a79.32,79.32,0,1,0,87.53,21.54h29.08v86a32.55,32.55,0,1,0,65.09,0v-86h53.44v86a32.55,32.55,0,1,0,65.09,0v-86h17q-.28,3-.29,6a64.72,64.72,0,0,0,77.43,63.37,7.5,7.5,0,1,0-3-14.71,49.7,49.7,0,0,1-59.47-48.66,50.83,50.83,0,0,1,.37-6h19.14a30.31,30.31,0,0,0-.62,6A30.74,30.74,0,1,0,459.5,335a32.5,32.5,0,0,0,9.87-18.47,49.64,49.64,0,0,1,.16,66.45,7.5,7.5,0,0,0,11.17,10,64.63,64.63,0,0,0-16.06-99.26,32.52,32.52,0,0,0-27.39-15h-86V225.27h86a32.55,32.55,0,0,0,0-65.1h-86V104.29h.41a4,4,0,0,1,3.95,3.85,65.46,65.46,0,0,1-2.15,20.9,15.09,15.09,0,0,0,18.76,18.63c20.4-6,32.85-17.61,41.63-38.93a7.13,7.13,0,0,1,6.6-4.45h61.69A29.88,29.88,0,0,0,512,74.46V29.84A29.88,29.88,0,0,0,482.16,0ZM143.53,396.3A64.27,64.27,0,1,1,79.26,332,64.34,64.34,0,0,1,143.53,396.3Zm289-30.74a15.76,15.76,0,0,1-15.74-15.74,15.5,15.5,0,0,1,1.21-6h19.21a32.34,32.34,0,0,0,9.23-1.34,15.59,15.59,0,0,1,1.83,7.37A15.76,15.76,0,0,1,432.57,365.56Zm4.68-190.38a17.55,17.55,0,1,1,0,35.09H343.77a7.5,7.5,0,0,0-7.5,7.5V286.2a7.5,7.5,0,0,0,7.5,7.5h93.48a17.55,17.55,0,1,1,0,35.09H343.77a7.5,7.5,0,0,0-7.5,7.5v93.48a17.55,17.55,0,1,1-35.09,0V336.29a7.5,7.5,0,0,0-7.5-7.5H225.24a7.5,7.5,0,0,0-7.5,7.5v93.48a17.55,17.55,0,1,1-35.09,0V336.29a7.5,7.5,0,0,0-7.5-7.5h-54.4a78.84,78.84,0,0,0-55.17-10.54,17.35,17.35,0,0,1-1.46-7A17.57,17.57,0,0,1,81.67,293.7h93.48a7.5,7.5,0,0,0,7.5-7.5V217.77a7.5,7.5,0,0,0-7.5-7.5H81.67a17.55,17.55,0,1,1,0-35.09h93.48a7.5,7.5,0,0,0,7.5-7.5V74.2a17.55,17.55,0,1,1,35.09,0v93.48a7.5,7.5,0,0,0,7.5,7.5h68.44a7.5,7.5,0,0,0,7.5-7.5V74.2a17.57,17.57,0,0,1,17.55-17.55,17.91,17.91,0,0,1,3.11.3V74.46A29.87,29.87,0,0,0,336.27,100v67.67a7.5,7.5,0,0,0,7.5,7.5ZM497,74.46A14.86,14.86,0,0,1,482.16,89.3H420.47A22.09,22.09,0,0,0,400,103c-7,17.09-16,25.57-32,30.26a.11.11,0,0,1-.07-.12,80.54,80.54,0,0,0,2.72-25.68,19,19,0,0,0-18.94-18.2,14.86,14.86,0,0,1-14.84-14.84V29.84A14.86,14.86,0,0,1,351.68,15H482.16A14.86,14.86,0,0,1,497,29.84ZM104.3,359.2a7.5,7.5,0,0,0-10.61,10.6L98,374.08a7.5,7.5,0,0,0,10.61-10.6Z"/></g></g></svg>