<svg xmlns="http://www.w3.org/2000/svg" xmlns:xlink="http://www.w3.org/1999/xlink" viewBox="0 0 75.64 56.53"><defs><style>.cls-1{fill:url(#New_Gradient_Swatch_2);}</style><linearGradient id="New_Gradient_Swatch_2" x1="5.56" y1="20.65" x2="62.97" y2="59.57" gradientUnits="userSpaceOnUse"><stop offset="0" stop-color="#16ab5d"/><stop offset="0" stop-color="#16ab5d"/><stop offset="0.56" stop-color="#1e8d9a"/><stop offset="0.98" stop-color="#2880b9"/><stop offset="1" stop-color="#2880b9"/></linearGradient></defs><title>Icon-Fraction</title><g id="Layer_2" data-name="Layer 2"><g id="Layer_1-2" data-name="Layer 1"><path class="cls-1" d="M22,1a4,4,0,0,1,1.44.28,3.62,3.62,0,0,1,2.18,2,3.89,3.89,0,0,1,0,3l-.32.84a3.73,3.73,0,0,1-1.94,2.2,3.64,3.64,0,0,1-1.47.32,4.11,4.11,0,0,1-1.43-.27,3.79,3.79,0,0,1-2.19-1.95,3.76,3.76,0,0,1,0-3l.31-.83a3.68,3.68,0,0,1,1.95-2.2A3.38,3.38,0,0,1,22,1M21.7,8.05a1.71,1.71,0,0,0,.85-.22,2.44,2.44,0,0,0,1.11-1.4L24,5.56a2.47,2.47,0,0,0,.06-1.73A1.85,1.85,0,0,0,22.88,2.7a2.2,2.2,0,0,0-.74-.14,1.77,1.77,0,0,0-.87.23,2.57,2.57,0,0,0-1.11,1.4l-.32.87a2.41,2.41,0,0,0-.05,1.73A1.88,1.88,0,0,0,21,7.91a2.19,2.19,0,0,0,.73.14m8.73-2,.95,1.25L17.88,17.73l-1-1.25L30.43,6.1m-3.66,7.8a4,4,0,0,1,1.44.28,3.66,3.66,0,0,1,2.19,1.95,3.81,3.81,0,0,1,0,3l-.32.85a3.66,3.66,0,0,1-1.95,2.19,3.47,3.47,0,0,1-1.48.33,4.15,4.15,0,0,1-1.43-.27,3.66,3.66,0,0,1-2.21-5l.32-.86a3.73,3.73,0,0,1,1.95-2.19,3.47,3.47,0,0,1,1.48-.33M26.5,21a1.71,1.71,0,0,0,.85-.22,2.5,2.5,0,0,0,1.11-1.41l.33-.88a2.41,2.41,0,0,0,.05-1.73,1.85,1.85,0,0,0-1.16-1.12,2.14,2.14,0,0,0-.73-.14,1.86,1.86,0,0,0-.86.22A2.47,2.47,0,0,0,25,17.07l-.32.89a2.39,2.39,0,0,0-.06,1.74,1.9,1.9,0,0,0,1.18,1.12,2,2,0,0,0,.74.14m26.12,3.71,6.25,2-.45,1.43-4.94-1.56-1.42,3.21a3.69,3.69,0,0,1,.87-.1,4.16,4.16,0,0,1,1.33.22,3.5,3.5,0,0,1,2.3,1.93,4.47,4.47,0,0,1,0,3.29,4.32,4.32,0,0,1-2,2.65,3.45,3.45,0,0,1-1.7.44,4.8,4.8,0,0,1-1.49-.25,4.08,4.08,0,0,1-2.36-1.73,3.76,3.76,0,0,1-.38-2.85l1.47.46a2.57,2.57,0,0,0,.24,1.82,2.44,2.44,0,0,0,1.43,1,2.59,2.59,0,0,0,.8.14,2.08,2.08,0,0,0,1.13-.34,3.17,3.17,0,0,0,1.26-1.84,2.93,2.93,0,0,0,0-2.17,2.37,2.37,0,0,0-1.54-1.31,3.62,3.62,0,0,0-1-.17,2.3,2.3,0,0,0-.71.11l-.51.21-1.14-.71,2.54-5.89m12.54,4,1.32.42L57.21,40.69l-1.33-.42,9.28-11.64m5.08,1.66a4.9,4.9,0,0,1,1.56.26,4,4,0,0,1,2.41,1.74A3.21,3.21,0,0,1,74.45,35q-.57,1.8-3.65,3.56l-4.39,2.52L72.54,43l-.4,1.27-8-2.53.36-1.11,5.7-3.36A10.94,10.94,0,0,0,72,35.93a3,3,0,0,0,.79-1.26,2.24,2.24,0,0,0-.08-1.75,2.13,2.13,0,0,0-1.35-1.1,3.12,3.12,0,0,0-1-.16,2.12,2.12,0,0,0-1,.25,2.6,2.6,0,0,0-1.22,1.63l-1.55-.49a3.75,3.75,0,0,1,1.94-2.38,3.68,3.68,0,0,1,1.67-.38M33.32,35.92,35.89,50l-1.79.32L31.93,38.46l-3.34,2-.29-1.61L33,36l.28,0M21.82,38a3.54,3.54,0,0,1,2.53.94,7.84,7.84,0,0,1,1.91,4.26l.42,2.31a8.21,8.21,0,0,1-.22,4.83,3.85,3.85,0,0,1-3.05,2.13,5.43,5.43,0,0,1-1,.1,3.57,3.57,0,0,1-2.56-1,7.77,7.77,0,0,1-1.92-4.23L17.46,45a8,8,0,0,1,.23-4.78,3.89,3.89,0,0,1,3.07-2.11,5.74,5.74,0,0,1,1.06-.1m.8,13.07a3.15,3.15,0,0,0,.52-.05,2.18,2.18,0,0,0,1.77-1.38A6.47,6.47,0,0,0,25,46.3l-.53-2.91a6.65,6.65,0,0,0-1.24-3.17,2.09,2.09,0,0,0-1.63-.72,3.88,3.88,0,0,0-.57,0,2.22,2.22,0,0,0-1.8,1.39,6.47,6.47,0,0,0-.06,3.28l.52,2.85A6.74,6.74,0,0,0,21,50.29a2.16,2.16,0,0,0,1.67.77M5.6,41a3.53,3.53,0,0,1,2.52.94A7.73,7.73,0,0,1,10,46.16l.43,2.31a8.3,8.3,0,0,1-.22,4.83,3.89,3.89,0,0,1-3.06,2.13,5.35,5.35,0,0,1-1,.1,3.55,3.55,0,0,1-2.55-1,7.81,7.81,0,0,1-1.93-4.23L1.24,48a8.14,8.14,0,0,1,.22-4.78,3.91,3.91,0,0,1,3.07-2.11A6.88,6.88,0,0,1,5.6,41M6.4,54A3.26,3.26,0,0,0,6.92,54,2.21,2.21,0,0,0,8.69,52.6a6.58,6.58,0,0,0,.08-3.33l-.54-2.91A6.56,6.56,0,0,0,7,43.19a2.1,2.1,0,0,0-1.63-.72,3.88,3.88,0,0,0-.57.05A2.19,2.19,0,0,0,3,43.92a6.52,6.52,0,0,0-.07,3.27L3.46,50a6.64,6.64,0,0,0,1.27,3.22A2.15,2.15,0,0,0,6.4,54m8.66-2.29a1,1,0,0,1,.6.18,1.07,1.07,0,0,1,.42.72,1,1,0,0,1-.14.79,1.17,1.17,0,0,1-.78.45l-.3,0a.93.93,0,0,1-.58-.18,1.07,1.07,0,0,1-.41-.69,1.12,1.12,0,0,1,.14-.81,1,1,0,0,1,.76-.46l.29,0M22,0h0a4.45,4.45,0,0,0-1.92.43A4.75,4.75,0,0,0,17.6,3.19L17.29,4a4.77,4.77,0,0,0,.05,3.8,4.76,4.76,0,0,0,2.75,2.46,5.17,5.17,0,0,0,1.78.33,4.33,4.33,0,0,0,1.29-.19l-6.85,5.27a1,1,0,0,0-.18,1.4l.95,1.25a1,1,0,0,0,.67.38h.13a1,1,0,0,0,.61-.21l4.32-3.32a5.8,5.8,0,0,0-.41.87l-.32.86a4.67,4.67,0,0,0,2.8,6.26,5.17,5.17,0,0,0,1.78.33,4.54,4.54,0,0,0,1.91-.42A4.73,4.73,0,0,0,31,20.35l.32-.85a4.83,4.83,0,0,0,0-3.79,4.68,4.68,0,0,0-2.75-2.47,5,5,0,0,0-1.79-.34h0a4.45,4.45,0,0,0-1.16.15L32,8.14a1,1,0,0,0,.19-1.4l-1-1.25a1,1,0,0,0-.66-.38h-.13a1,1,0,0,0-.61.21L25.74,8.44a4.87,4.87,0,0,0,.48-1l.32-.84a4.91,4.91,0,0,0,0-3.75A4.6,4.6,0,0,0,23.77.34,5.06,5.06,0,0,0,22,0ZM21.7,7.05A1,1,0,0,1,21.32,7a.86.86,0,0,1-.59-.54,1.35,1.35,0,0,1,.05-1l.32-.87a1.55,1.55,0,0,1,.66-.88.72.72,0,0,1,.38-.1,1.29,1.29,0,0,1,.4.08.85.85,0,0,1,.57.53,1.46,1.46,0,0,1-.06,1l-.32.87a1.54,1.54,0,0,1-.65.87.77.77,0,0,1-.38.1ZM26.5,20a1,1,0,0,1-.39-.08.86.86,0,0,1-.59-.54,1.43,1.43,0,0,1,.05-1l.33-.89a1.48,1.48,0,0,1,.65-.85.83.83,0,0,1,.4-.11,1.13,1.13,0,0,1,.38.08.87.87,0,0,1,.58.53,1.44,1.44,0,0,1-.06,1l-.33.88a1.53,1.53,0,0,1-.65.88.71.71,0,0,1-.37.1Zm26.12,3.71a1,1,0,0,0-.92.6l-2.54,5.89a1,1,0,0,0,.39,1.25l1.14.71a1,1,0,0,0,.53.15,1,1,0,0,0,.37-.07L52.1,32a1.44,1.44,0,0,1,.34,0,2.29,2.29,0,0,1,.72.13,1.37,1.37,0,0,1,.93.76,2,2,0,0,1,0,1.46,2.31,2.31,0,0,1-.85,1.3,1,1,0,0,1-.59.18,1.61,1.61,0,0,1-.5-.09,1.45,1.45,0,0,1-.87-.6A1.66,1.66,0,0,1,51.17,34a1,1,0,0,0-.68-1.12L49,32.38a1,1,0,0,0-.3-.05,1.09,1.09,0,0,0-.5.13,1,1,0,0,0-.48.66,4.75,4.75,0,0,0,.51,3.58,5,5,0,0,0,2.91,2.16,5.84,5.84,0,0,0,1.79.3,4.39,4.39,0,0,0,2.19-.57,5.34,5.34,0,0,0,2.42-3.22,5.5,5.5,0,0,0-.08-4,4.53,4.53,0,0,0-2.91-2.49,5.6,5.6,0,0,0-1-.21l.41-.94L58.12,29a1,1,0,0,0,.3,0,1,1,0,0,0,.95-.7L59.82,27a1,1,0,0,0-.06-.77,1.06,1.06,0,0,0-.59-.49l-6.25-2a1,1,0,0,0-.3,0Zm12.54,4a1,1,0,0,0-.79.38L55.09,39.65a1,1,0,0,0,.48,1.58l1.34.42a1,1,0,0,0,.3,0,1,1,0,0,0,.78-.37l9.27-11.65a1,1,0,0,0-.48-1.57l-1.32-.42a1,1,0,0,0-.3-.05Zm5.08,1.66h0a4.69,4.69,0,0,0-4.57,3.46,1,1,0,0,0,.07.76,1,1,0,0,0,.59.49l1.55.49a1,1,0,0,0,.3,0,1,1,0,0,0,.95-.7,1.7,1.7,0,0,1,.74-1.05,1.16,1.16,0,0,1,.56-.13,2.46,2.46,0,0,1,.67.11,1.11,1.11,0,0,1,.75.58,1.32,1.32,0,0,1,0,1,2.05,2.05,0,0,1-.54.85,9.79,9.79,0,0,1-1.65,1.18L64,39.75a1,1,0,0,0-.45.56l-.35,1.12a1,1,0,0,0,.07.76,1,1,0,0,0,.58.49l8,2.53a1,1,0,0,0,.3,0,1,1,0,0,0,1-.7l.4-1.27a1,1,0,0,0-.06-.76,1,1,0,0,0-.59-.49l-4-1.25,2.41-1.38c2.3-1.32,3.64-2.67,4.1-4.13a4.21,4.21,0,0,0-.32-3.5,5.07,5.07,0,0,0-3-2.19,6.34,6.34,0,0,0-1.87-.3ZM33.32,34.92l-.18,0-.28.05a.89.89,0,0,0-.34.13L27.78,38a1,1,0,0,0-.47,1l.3,1.61a1,1,0,0,0,.57.73,1,1,0,0,0,.41.09,1,1,0,0,0,.51-.14l2.11-1.24,1.91,10.43a1,1,0,0,0,1,.82h.18L36.07,51a1,1,0,0,0,.8-1.16L34.3,35.74a1,1,0,0,0-.42-.64.94.94,0,0,0-.56-.18ZM21.82,37h0a6.84,6.84,0,0,0-1.24.12,4.86,4.86,0,0,0-3.8,2.67,8.94,8.94,0,0,0-.3,5.38l.43,2.37a8.76,8.76,0,0,0,2.22,4.78,4.54,4.54,0,0,0,3.25,1.25,6.52,6.52,0,0,0,1.21-.12,4.8,4.8,0,0,0,3.78-2.69,9,9,0,0,0,.29-5.43L27.24,43A8.65,8.65,0,0,0,25,38.2,4.56,4.56,0,0,0,21.82,37Zm.8,13.07a1.14,1.14,0,0,1-.92-.43,5.6,5.6,0,0,1-1-2.74L20.14,44a5.4,5.4,0,0,1,0-2.74,1.17,1.17,0,0,1,1-.76,1.84,1.84,0,0,1,.39,0,1.11,1.11,0,0,1,.89.39,5.58,5.58,0,0,1,1,2.68L24,46.48a5.45,5.45,0,0,1,0,2.78A1.18,1.18,0,0,1,23,50l-.34,0ZM5.6,40h0a6.86,6.86,0,0,0-1.25.12A4.86,4.86,0,0,0,.56,42.75a8.86,8.86,0,0,0-.31,5.38L.69,50.5a8.72,8.72,0,0,0,2.22,4.78,4.53,4.53,0,0,0,3.24,1.25,6.36,6.36,0,0,0,1.21-.12,4.8,4.8,0,0,0,3.79-2.69,9.11,9.11,0,0,0,.29-5.43L11,46a8.72,8.72,0,0,0-2.21-4.81A4.56,4.56,0,0,0,5.6,40ZM6.4,53a1.16,1.16,0,0,1-.93-.43,5.74,5.74,0,0,1-1-2.74L3.92,47a5.44,5.44,0,0,1,0-2.74A1.2,1.2,0,0,1,5,43.51a1.84,1.84,0,0,1,.39,0,1.09,1.09,0,0,1,.88.39,5.55,5.55,0,0,1,1,2.68l.53,2.91a5.38,5.38,0,0,1,0,2.78,1.2,1.2,0,0,1-1,.77L6.4,53Zm8.66-2.29a2.56,2.56,0,0,0-.47,0,2.08,2.08,0,0,0-1.44.92,2.16,2.16,0,0,0-.26,1.52,2.06,2.06,0,0,0,.79,1.31,1.94,1.94,0,0,0,1.18.38,2.7,2.7,0,0,0,.48,0A2.06,2.06,0,0,0,16.77,54a2,2,0,0,0,.3-1.52,2.11,2.11,0,0,0-.81-1.34,2,2,0,0,0-1.2-.38Z"/></g></g></svg>