<svg xmlns="http://www.w3.org/2000/svg" xmlns:xlink="http://www.w3.org/1999/xlink" viewBox="0 0 140.1 135.55"><defs><style>.cls-1{fill:url(#New_Gradient_Swatch_2);}.cls-2{fill:url(#New_Gradient_Swatch_2-2);}.cls-3{fill:url(#New_Gradient_Swatch_2-3);}.cls-4{fill:url(#New_Gradient_Swatch_2-4);}.cls-5{fill:url(#New_Gradient_Swatch_2-5);}</style><linearGradient id="New_Gradient_Swatch_2" x1="63.13" y1="71.03" x2="94.24" y2="71.03" gradientUnits="userSpaceOnUse"><stop offset="0" stop-color="#16ab5d"/><stop offset="0" stop-color="#16ab5d"/><stop offset="0.56" stop-color="#1e8d9a"/><stop offset="0.98" stop-color="#2880b9"/><stop offset="1" stop-color="#2880b9"/></linearGradient><linearGradient id="New_Gradient_Swatch_2-2" x1="74.7" y1="35.77" x2="97.68" y2="35.77" xlink:href="#New_Gradient_Swatch_2"/><linearGradient id="New_Gradient_Swatch_2-3" x1="82.2" y1="26.29" x2="134.39" y2="26.29" xlink:href="#New_Gradient_Swatch_2"/><linearGradient id="New_Gradient_Swatch_2-4" x1="0" y1="101.95" x2="58.91" y2="101.95" xlink:href="#New_Gradient_Swatch_2"/><linearGradient id="New_Gradient_Swatch_2-5" x1="7.35" y1="65.69" x2="140.1" y2="65.69" xlink:href="#New_Gradient_Swatch_2"/></defs><title>Icon-Compass</title><g id="Layer_2" data-name="Layer 2"><g id="Capa_1" data-name="Capa 1"><path class="cls-1" d="M71.89,71.16l-3.11-3.1,8.31,18.53L94.24,69.44l-31.11-14,2.6,5.79,8,8a1.32,1.32,0,0,1-1.87,1.87Z"/><polygon class="cls-2" points="74.7 32.72 76.12 34.14 97.68 44.44 80.32 27.09 74.7 32.72"/><path class="cls-3" d="M96.27,31.78,86,21.46,82.2,25.22,100,43a1.33,1.33,0,0,1,0,1.88,1.25,1.25,0,0,1-.67.33l12.92,6.18,20.57-20.58a5.31,5.31,0,0,0,0-7.5L112.21,2.71a5.31,5.31,0,0,0-7.5,0l-9.38,9.38,17.81,17.82a1.32,1.32,0,0,1-1.87,1.87L93.45,14l-5.62,5.63L98.14,29.9a1.33,1.33,0,0,1-1.87,1.88Z"/><path class="cls-4" d="M39.06,68.35,35.31,72.1,45.62,82.42a1.32,1.32,0,1,1-1.87,1.87L33.43,74l-5.62,5.63L45.62,97.42a1.33,1.33,0,1,1-1.87,1.88L25.93,81.48l-3.75,3.76L32.49,95.55a1.32,1.32,0,0,1-1.87,1.87L20.3,87.11l-5.62,5.63L32.5,110.55a1.35,1.35,0,0,1,0,1.88,1.33,1.33,0,0,1-1.88,0L12.81,94.61,1.55,105.86a5.32,5.32,0,0,0,0,7.51L22.18,134a5.32,5.32,0,0,0,7.51,0l29.22-29.23L43.55,72.84Z"/><path class="cls-5" d="M130.23,73.26,129.47,71a14.38,14.38,0,0,0-5.71-8.67l-15.15-7.24L85.4,44l-6.12-2.93-8.74-4.18L61.82,32.7c.85-1.66-.6-3.38-.6-3.38L39.1,7.21,32,14.28,19.75,2a5.72,5.72,0,0,0-4-2A3.17,3.17,0,0,0,14,.48l-2.31,2.3L9.91,4.56,8.14,6.32s-2.32,3,1,6.31L21.41,24.9,14.33,32,36.45,54.09a5,5,0,0,0,2.3.64,3,3,0,0,0,1.35-.3l4.19,8.7L50.49,76,54,83.26l8.59,17.86,7.28,15.11a14.69,14.69,0,0,0,8.74,5.64l2.67.89,5.52,5.86c1.71,1.81,2.89,2.76,3.36,2.76s.3-.58-.3-1.75l-2.45-4.85,1.76.58L73.4,90.28,59.1,58.38l-3.05-6.8L56,51.43l-.29-.65,2-2,.76-.75.66.29,2.17,1,6.81,3.05L97.92,65.76,133,81.51l-.87-2.59L138,81.74s3.16-1.5,1.83-3.71Z"/></g></g></svg>