<svg xmlns="http://www.w3.org/2000/svg" xmlns:xlink="http://www.w3.org/1999/xlink" viewBox="0 0 131.6 125.14"><defs><style>.cls-1,.cls-2,.cls-3,.cls-4{fill:none;stroke-miterlimit:10;stroke-width:3px;}.cls-1{stroke:url(#New_Gradient_Swatch_2);}.cls-2{stroke:url(#New_Gradient_Swatch_2-2);}.cls-3{stroke:url(#New_Gradient_Swatch_2-3);}.cls-4{stroke:url(#New_Gradient_Swatch_2-4);}</style><linearGradient id="New_Gradient_Swatch_2" y1="31.49" x2="65.16" y2="31.49" gradientUnits="userSpaceOnUse"><stop offset="0" stop-color="#16ab5d"/><stop offset="0" stop-color="#16ab5d"/><stop offset="0.56" stop-color="#1e8d9a"/><stop offset="0.98" stop-color="#2880b9"/><stop offset="1" stop-color="#2880b9"/></linearGradient><linearGradient id="New_Gradient_Swatch_2-2" x1="66.44" y1="31.49" x2="131.6" y2="31.49" xlink:href="#New_Gradient_Swatch_2"/><linearGradient id="New_Gradient_Swatch_2-3" y1="93.63" x2="65.16" y2="93.63" xlink:href="#New_Gradient_Swatch_2"/><linearGradient id="New_Gradient_Swatch_2-4" x1="66.44" y1="93.63" x2="131.6" y2="93.63" xlink:href="#New_Gradient_Swatch_2"/></defs><title>Icon-Expression</title><g id="Layer_2" data-name="Layer 2"><g id="Capa_1" data-name="Capa 1"><path class="cls-1" d="M57.22,1.5H7.94A6.45,6.45,0,0,0,1.5,7.94V55.05a6.45,6.45,0,0,0,6.44,6.43H57.22a6.45,6.45,0,0,0,6.44-6.43V7.91A6.45,6.45,0,0,0,57.22,1.5ZM50.81,35.77H38V48.61a5.37,5.37,0,0,1-10.73,0V35.77H14.4A5.37,5.37,0,0,1,14.4,25H27.24V14.34a5.37,5.37,0,0,1,10.73,0V25H50.81a5.37,5.37,0,1,1,0,10.73Z"/><path class="cls-2" d="M123.64,1.5H74.38a6.45,6.45,0,0,0-6.44,6.44V55.05a6.45,6.45,0,0,0,6.44,6.43h49.29a6.44,6.44,0,0,0,6.43-6.43V7.91A6.48,6.48,0,0,0,123.64,1.5ZM117.2,35.33a5.6,5.6,0,0,1-2.14.44H82.93a5.6,5.6,0,0,1-2.14-.44,5.34,5.34,0,0,1,0-9.8,5.6,5.6,0,0,1,2.14-.43h32.13a5.6,5.6,0,0,1,2.14.43,5.34,5.34,0,0,1,0,9.8Z"/><path class="cls-3" d="M57.22,63.63H7.94A6.45,6.45,0,0,0,1.5,70.06V117.2a6.45,6.45,0,0,0,6.44,6.44H57.22a6.45,6.45,0,0,0,6.44-6.44V70.06A6.45,6.45,0,0,0,57.22,63.63Zm-6.41,46.75c0,.14-.11.25-.14.36A5.26,5.26,0,0,1,49,113a5.35,5.35,0,0,1-3.3,1.16,5.27,5.27,0,0,1-4.2-2l-1.08-1.35-7.39-9.37-7.4,9.37-1.08,1.35a5.31,5.31,0,0,1-7.5.88,5.26,5.26,0,0,1-1.65-2.25,5.34,5.34,0,0,1,.74-5.28l10-12.76L17.67,81.86A5.34,5.34,0,0,1,17,76.47a5.2,5.2,0,0,1,1.6-2.12,5.38,5.38,0,0,1,7.54.88l1,1.24,6,7.59,6-7.59,1-1.24a5.37,5.37,0,0,1,7.53-.88,5.11,5.11,0,0,1,1.6,2.12,5.34,5.34,0,0,1-.69,5.39L39.89,92.7l10,12.76a5.37,5.37,0,0,1,.91,1.76A6,6,0,0,1,50.81,110.38Z"/><path class="cls-4" d="M123.64,63.63H74.38a6.45,6.45,0,0,0-6.44,6.43V117.2a6.45,6.45,0,0,0,6.44,6.44h49.29a6.45,6.45,0,0,0,6.43-6.44V70.06A6.48,6.48,0,0,0,123.64,63.63Zm-8.56,42.85H82.94a5.61,5.61,0,0,1-2.15-.44,5.34,5.34,0,0,1,0-9.8,5.61,5.61,0,0,1,2.15-.44h32.12a5.6,5.6,0,0,1,2.14.44,5.34,5.34,0,0,1,0,9.8A5.46,5.46,0,0,1,115.08,106.48ZM117.2,91a5.6,5.6,0,0,1-2.14.44H82.93A5.6,5.6,0,0,1,80.79,91a5.33,5.33,0,0,1,0-9.79,5.42,5.42,0,0,1,2.14-.44h32.13a5.42,5.42,0,0,1,2.14.44,5.33,5.33,0,0,1,0,9.79Z"/></g></g></svg>