<svg xmlns="http://www.w3.org/2000/svg" xmlns:xlink="http://www.w3.org/1999/xlink" viewBox="0 0 235.49 170.68"><defs><style>.cls-1{fill:url(#New_Gradient_Swatch_3);}.cls-2{fill:url(#New_Gradient_Swatch_3-2);}.cls-3{fill:url(#New_Gradient_Swatch_3-3);}.cls-4{fill:url(#New_Gradient_Swatch_3-4);}</style><linearGradient id="New_Gradient_Swatch_3" x1="8.73" y1="82.75" x2="235.49" y2="82.75" gradientUnits="userSpaceOnUse"><stop offset="0" stop-color="#eb4e8d"/><stop offset="0.35" stop-color="#e94f8f"/><stop offset="0.69" stop-color="#bc66a8"/><stop offset="1" stop-color="#a161a8"/></linearGradient><linearGradient id="New_Gradient_Swatch_3-2" x1="0" y1="138.88" x2="69.53" y2="138.88" xlink:href="#New_Gradient_Swatch_3"/><linearGradient id="New_Gradient_Swatch_3-3" x1="35.29" y1="148.42" x2="85.66" y2="148.42" xlink:href="#New_Gradient_Swatch_3"/><linearGradient id="New_Gradient_Swatch_3-4" x1="68.01" y1="160.59" x2="101.68" y2="160.59" xlink:href="#New_Gradient_Swatch_3"/></defs><title>Icon-Idiom</title><g id="Layer_2" data-name="Layer 2"><g id="Capa_1" data-name="Capa 1"><path class="cls-1" d="M233.76,52.59c-.7-1.3-1.47-2.54-2.87-4.85-1.62-2.7-3.57-6-6-10.74a4.78,4.78,0,0,0-6-2.21c-3.09,1.23-13,2.63-20.4-1.47-1.86-1.08-3.71-2.19-5.66-3.39a74.94,74.94,0,0,0-12.35-6.49,75.35,75.35,0,0,1,1.87-13.61c1.69-4.41.51-6.86-.76-8.11A6.51,6.51,0,0,0,176.7,0a13.79,13.79,0,0,0-2.57.32,55.12,55.12,0,0,0-5.64,2.13C157,7.54,148.19,16,144.68,19.63a87.14,87.14,0,0,0-18.43,4.24,448.57,448.57,0,0,0-48.2-13.53c-.92-.2-1.84-.39-2.78-.57-1.81-.36-3.62-.7-5.41-1-2-.37-4.06-.71-6-1-.44-.07-.83-.12-1.25-.17A112.83,112.83,0,0,0,47.27,6.3,43.18,43.18,0,0,0,34.49,8c-.54.17-1,.39-1.51.57A19.23,19.23,0,0,0,30.21,9.8c-.31.17-.71.27-1,.47s-.28.33-.47.48a13.43,13.43,0,0,0-3.78,4c-.17.29-.36.58-.51.88a16.23,16.23,0,0,0-1.73,6.48c0,.25.22,2,.74,4.53.09.49.1.91.23,1.43C9.78,32.43,7.81,40.11,9,46.69c.32.88,7.91,22,25.73,30.31,8.21,3.81,17.08,4.34,26.57,1.52a44.39,44.39,0,0,0,9.61,8,55.9,55.9,0,0,0,4.13,30.53c8.76,19.76,32,33.41,49.31,36.22.46.18,2.22,1.81,4.27,6.92a9,9,0,0,0,8.32,5.3,9.49,9.49,0,0,0,3.8-.79L160.4,156a9.21,9.21,0,0,0,5.46-8.64,86.51,86.51,0,0,0,11.07-4.9,9.24,9.24,0,0,0,6.33,2.49h0a9.6,9.6,0,0,0,3.75-.79l19.58-8.72a9.13,9.13,0,0,0,5-11.58,4.39,4.39,0,0,0-.63-1.17c-3.6-4.77-3.6-6.68-3.64-6.68l1.17-2.6C213.12,103,217.94,92.24,220,81c.9-5,3.93-11.75,9.42-14.47,2-1,4.44-2.44,5.49-5.14C236,58.94,235.58,56,233.76,52.59ZM61.48,68.5c-8.24,3.11-15.85,3.11-22.65-.06-14-6.5-20.56-24.18-20.64-24.18-.52-3,2.37-5.34,8.28-7.17a54.32,54.32,0,0,0,3,6.56c.82,1.51,1.65,3,2.64,4.51.37.54.8,1.07,1.19,1.59A40.69,40.69,0,0,0,37,54.17c.51.49,1.05,1,1.56,1.46.74.66,1.36,1.42,2.15,2s1.8,1.13,2.7,1.69c.43.26.85.55,1.29.82a32.59,32.59,0,0,0,7.42,3.11h.08a35.85,35.85,0,0,0,8.33,1.09c.41,0,.71.14,1.12.14,1.07,0,2.18,0,3.34-.14A38.09,38.09,0,0,0,67.4,70c.27.49.59,1,.9,1.49s.67,1.17,1.07,1.79a24.66,24.66,0,0,1-2.08-2.62A4.8,4.8,0,0,0,61.48,68.5ZM225.3,58c-8.66,4.3-13.22,13.82-14.56,21.29-1.85,10.11-6.42,20.36-11,30.57l-1,2.24c-1.78,3.92-.55,8.81,3.71,14.88l-18.86,8.67-1.41-2a4.74,4.74,0,0,0-6.14-1.46l-2.42,1.34a80.71,80.71,0,0,1-12.06,5.34l-2.59.89a4.75,4.75,0,0,0-3,5.56l.69,2L137.18,156c-3-7.34-6.67-11.26-11.14-12-15.17-2.45-35.14-14.65-42.28-30.77C79.69,104.09,79,94,81.21,83.59c.05,0,.06.06.11.07a34.89,34.89,0,0,0,15,3.12C110,86.78,127,80.47,147.07,68a4.74,4.74,0,0,0-5-8.05C110.53,79.61,93.83,79,85.42,75.14A18.62,18.62,0,0,1,81,72.2c-6.41-5.46-7.73-13.61-7.75-13.68a4.73,4.73,0,0,0-4.66-4.08,4.51,4.51,0,0,0-.81.07A34.28,34.28,0,0,1,62,55c-.9,0-1.75-.11-2.59-.18s-1.63-.11-2.39-.22a24.29,24.29,0,0,1-3.41-.86c-.32-.13-.64-.21-1-.32a26.18,26.18,0,0,1-3.42-1.58,2.68,2.68,0,0,0-.33-.18,26.93,26.93,0,0,1-7.75-7c-.43-.55-.85-1.12-1.24-1.7s-.79-1.18-1.14-1.77A58,58,0,0,1,32.21,22a4.38,4.38,0,0,1,1-2.56c.08-.09.18-.16.26-.26a8.2,8.2,0,0,1,2.16-1.44c.35-.16.67-.33,1.06-.48a19.92,19.92,0,0,1,4-1h.14a46.6,46.6,0,0,1,6.41-.39c2.38,0,5,.17,7.64.42l2.31.21c2,.21,4.09.52,6.19.84,2.42.38,4.88.81,7.44,1.31.53.09,1.07.19,1.58.31,5.75,1.14,11.81,2.56,17.94,4.16,2.24.59,4.5,1.17,6.7,1.79a7.27,7.27,0,0,0,.78.22C108.06,28,117.53,31,124.74,33.42c.06,0,.15,0,.19,0,4.93,1.67,9.61,3.34,13.89,4.95a4.68,4.68,0,0,0,3.49-8.68c1.37-.23,2.73-.56,4.08-.72l1.17-.16a4.56,4.56,0,0,0,2.79-1.42l.88-.9c2.9-3.11,10.81-10.82,21.12-15.4h0A71.8,71.8,0,0,0,171,25.24l0,1.67a4.74,4.74,0,0,0,3.22,4.4l1.65.54c4.13,1.4,7.77,3.6,12.09,6.22,1.85,1.16,3.8,2.35,5.82,3.5a36,36,0,0,0,24.49,3.31c1.73,3.17,3.18,5.63,4.44,7.72,0,0,.64,1,.64,1,.73,1.2,1.42,2.31,2,3.42a7.65,7.65,0,0,1,.35.75A3.36,3.36,0,0,1,225.3,58Z"/><path class="cls-2" d="M69.13,123.63a4.76,4.76,0,0,0-6.26-2.41l-60,26.66a4.76,4.76,0,0,0-2.41,6.27,4.74,4.74,0,0,0,6.25,2.38l60.05-26.67A4.71,4.71,0,0,0,69.13,123.63Z"/><path class="cls-3" d="M85.25,137.43A4.73,4.73,0,0,0,79,135L38.1,153.19a4.72,4.72,0,0,0,1.93,9,4.83,4.83,0,0,0,1.92-.4l40.89-18.15A4.74,4.74,0,0,0,85.25,137.43Z"/><path class="cls-4" d="M95,150.89l-24.2,10.74a4.72,4.72,0,0,0,1.93,9.05,4.81,4.81,0,0,0,1.92-.39l24.2-10.74A4.74,4.74,0,0,0,95,150.89Z"/></g></g></svg>