<svg xmlns="http://www.w3.org/2000/svg" viewBox="0 0 512 471.01"><defs><style>.cls-1{fill:#343e4d;}</style></defs><title>lesson</title><g id="Layer_2" data-name="Layer 2"><g id="Layer_1-2" data-name="Layer 1"><path class="cls-1" d="M84.31,283.32a7.53,7.53,0,0,0,3.15-.69c39.49-18.16,106-10.89,124.17-.33a7.56,7.56,0,0,0,7.59-13.08c-11.86-6.87-35.38-11.7-61.4-12.61-17.35-.59-50.38.19-76.67,12.28a7.56,7.56,0,0,0,3.16,14.43Z"/><path class="cls-1" d="M84.31,338.78a7.54,7.54,0,0,0,3.15-.7c39.49-18.16,106-10.88,124.17-.33a7.56,7.56,0,0,0,7.59-13.07c-11.86-6.88-35.38-11.71-61.4-12.61-17.35-.6-50.38.19-76.67,12.28a7.56,7.56,0,0,0,3.16,14.43Z"/><path class="cls-1" d="M430.88,268.89c-26.31-12.09-59.34-12.88-76.7-12.28-26,.91-49.54,5.74-61.39,12.61a7.56,7.56,0,0,0,7.58,13.08c18.2-10.56,84.68-17.83,124.2.33a7.56,7.56,0,0,0,6.31-13.74Z"/><path class="cls-1" d="M430.88,324.35c-26.31-12.09-59.34-12.88-76.7-12.28-26,.9-49.54,5.73-61.39,12.61a7.55,7.55,0,1,0,7.58,13.07c18.2-10.55,84.68-17.82,124.2.33a7.56,7.56,0,1,0,6.31-13.73Z"/><path class="cls-1" d="M171.88,124.58a9.15,9.15,0,0,0-7,3.15,10.88,10.88,0,0,0-2.84,7.62,10.6,10.6,0,0,0,2.95,8,9.71,9.71,0,0,0,6.94,2.89,9.45,9.45,0,0,0,6.82-2.92,10.84,10.84,0,0,0,2.93-7.92,11,11,0,0,0-2.79-7.62A9.08,9.08,0,0,0,171.88,124.58Z"/><path class="cls-1" d="M151.47,80.94c4.92,0,7.08-3.44,7.67-8.12a31.7,31.7,0,0,1,5.69-10.11c2.1-2.5,5.31-3.18,8.44-3.18a10.7,10.7,0,0,1,8,3.21,10.89,10.89,0,0,1,3.1,7.89,10,10,0,0,1-1,4.41,17.45,17.45,0,0,1-2.62,3.83c-1.65,1.85-3.49,3.63-5.25,5.39a96.19,96.19,0,0,0-6.77,7.22,25.83,25.83,0,0,0-4.15,7.29,27.46,27.46,0,0,0-1.56,9.8c0,2.61.51,5.34,2.33,7.3a7.89,7.89,0,0,0,5.88,2.55c4.86,0,7.25-3.15,8-7.66.28-1.45.6-2.9.94-4.35a14,14,0,0,1,.82-2.3,13,13,0,0,1,1.62-2.56,32.34,32.34,0,0,1,3-3.37c3.3-3.32,6.66-6.7,9.81-10.17a29.9,29.9,0,0,0,4.92-7.38,23.62,23.62,0,0,0,2.1-10.14,26.18,26.18,0,0,0-13.93-23.28,31.76,31.76,0,0,0-15.29-3.58A30.47,30.47,0,0,0,157,47.92a29.39,29.39,0,0,0-10.63,10.81,26.63,26.63,0,0,0-3.66,13,9.3,9.3,0,0,0,2.5,6.25A8,8,0,0,0,151.47,80.94Z"/><path class="cls-1" d="M276.56,139.09c.76.77,1.38,1.44,1.9,2,1.86,2,4.33,4.64,8.08,4.64a8.78,8.78,0,0,0,1.5-.13c4.6-.83,6.19-4.64,7.35-7.43.31-.74.69-1.64,1.16-2.69l22-48.54H380.4a7.56,7.56,0,0,0,0-15.12H313.69a7.57,7.57,0,0,0-6.89,4.44l-22.34,49.3-14.92-15.21a7.56,7.56,0,1,0-10.79,10.58Z"/><path class="cls-1" d="M358.46,125.41l8-8.69a8.63,8.63,0,0,0,2.36-5.74,7.37,7.37,0,0,0-2.38-5.62A7.64,7.64,0,0,0,360.7,103a7.79,7.79,0,0,0-6.22,3.07l-6.12,7.64-6-7.61a7.73,7.73,0,0,0-6.22-3.1,8.2,8.2,0,0,0-3.21.63,9.74,9.74,0,0,0-2.5,1.59l0,0,0,0a7.74,7.74,0,0,0-2.3,5.68,8.44,8.44,0,0,0,2.39,5.77l7.93,8.66-10.32,11.3a7.16,7.16,0,0,0-1.85,5.14,8.11,8.11,0,0,0,8.13,8.15c2.67,0,4.86-1.62,6.51-3.61l7.48-9.34,7.61,9.34c1.65,2,3.84,3.61,6.51,3.61a8.16,8.16,0,0,0,8.16-8.15,7.46,7.46,0,0,0-1.93-5.14Z"/><path class="cls-1" d="M474.37,122.11H474c0-20.57-11.61-23.84-29.1-28.78l-.31-.09c-5.36-1.54-10.8-2.85-16.48-4A107.09,107.09,0,0,0,249.91,34.52,93.19,93.19,0,0,0,84.39,89.16c-5.85,1.14-11.46,2.48-17,4.07l-.33.1C49.59,98.27,38,101.55,38,122.11h-.34A37.66,37.66,0,0,0,0,159.71V422.62C0,446.67,17.28,471,50.31,471h71.88a7.56,7.56,0,1,0,0-15.11H50.31c-24.18,0-35.2-17.25-35.2-33.28V159.71a22.52,22.52,0,0,1,22.52-22.48H38V409.59a23.36,23.36,0,0,0,23.13,23.52H248.46V455.9H157.92a7.56,7.56,0,1,0,0,15.11H461.69c33,0,50.31-24.34,50.31-48.39V159.71A37.66,37.66,0,0,0,474.37,122.11Zm-128.1-99h0a91.88,91.88,0,0,1,67.87,73.51c0,.14.05.29.07.43A91.88,91.88,0,0,1,385,180.35a7.55,7.55,0,0,0-2.43,6.73c.69,4.67,1.13,8.63,1.6,12.82.43,3.82.86,7.76,1.5,12.23-.74,4.61-2.41,7.47-5,8.51-3.69,1.5-9.93-.23-14.84-4.13l-16.66-13.2a7.52,7.52,0,0,0-4.69-1.64,7.36,7.36,0,0,0-1.61.18A92.08,92.08,0,0,1,261.55,180a8.09,8.09,0,0,0-.74-.7,92.42,92.42,0,0,1-16.36-20.35A91.82,91.82,0,0,1,346.27,23.15ZM116.61,44.29a78.14,78.14,0,0,1,123,1.5,106.86,106.86,0,0,0-14.24,108.87,78.12,78.12,0,0,1-74.87,11.56,7.53,7.53,0,0,0-6.43.57L128.25,176c-4.28,2.5-9.48,3.24-12.09,1.71-2-1.18-2.61-4.17-2.69-6.78,1.1-3.78,2-7.12,2.8-10.37.88-3.43,1.71-6.67,2.82-10.46a7.53,7.53,0,0,0-1.46-7,77.93,77.93,0,0,1-1-98.83ZM53.09,122.23c0-6.8,1.45-7.94,2.31-8.62,2.52-2,8.09-3.56,15.79-5.74l.36-.1c4.41-1.27,8.88-2.35,13.5-3.31a92.4,92.4,0,0,0,18.46,45.21c-.69,2.51-1.3,4.85-1.89,7.15-.91,3.57-1.78,6.94-3,10.9a7.56,7.56,0,0,0-.31,2.06c-.16,13,6.32,18.75,10.2,21a22.29,22.29,0,0,0,11.24,2.82,32.33,32.33,0,0,0,16.08-4.55l12.77-7.47a93.92,93.92,0,0,0,39,4,92.73,92.73,0,0,0,44.8-17.37,107.53,107.53,0,0,0,16,20.15V393.64c-20.23-7.75-51.77-13.17-85.07-14.32-25.13-.87-71,.11-110.3,14.82ZM263.57,410c33.59-15.83,132.78-25.75,195.31.35a8.18,8.18,0,0,1-8,7.61H263.57Zm-210.44.35c62.53-26.11,161.74-16.18,195.33-.35v8H61.11A8.18,8.18,0,0,1,53.13,410.38Zm443.76,12.24c0,16-11,33.28-35.2,33.28H263.57V433.11H450.92A23.34,23.34,0,0,0,474,409.59V285.76a7.56,7.56,0,1,0-15.11,0V394.14c-39.3-14.71-85.16-15.69-110.29-14.82-33.29,1.15-64.82,6.57-85.05,14.32V200.75A107.13,107.13,0,0,0,297,215.7a105.84,105.84,0,0,0,45.54,1.63l13.91,11c6.49,5.15,14.15,7.91,21.18,7.91a23.07,23.07,0,0,0,8.74-1.63c4.59-1.87,12.57-7.15,14.42-21.55a7.55,7.55,0,0,0,0-2.07c-.69-4.66-1.13-8.61-1.6-12.8-.33-3-.68-6.06-1.12-9.4a107.31,107.31,0,0,0,32.31-83.63c3.43.78,6.78,1.63,10.11,2.59l.33.09c7.7,2.18,13.27,3.75,15.79,5.74.86.68,2.31,1.82,2.31,8.62V250.09a7.56,7.56,0,1,0,15.11,0V137.23h.35a22.52,22.52,0,0,1,22.52,22.48Z"/></g></g></svg>