<svg xmlns="http://www.w3.org/2000/svg" viewBox="0 0 360.47 432.4"><defs><style>.cls-1{fill:#343e4d;}</style></defs><title>light-bulb</title><g id="Layer_2" data-name="Layer 2"><g id="Capa_1" data-name="Capa 1"><path class="cls-1" d="M180.56,93.2c-61.2,0-111.2,50-111.2,111.2A112.14,112.14,0,0,0,107,288c17.6,17.6,16,55.2,15.6,55.6a6.62,6.62,0,0,0,2,5.2,7.38,7.38,0,0,0,4.8,2h102a6.62,6.62,0,0,0,4.8-2,7.6,7.6,0,0,0,2-5.2c0-.4-2-38,15.6-55.6l1.2-1.2c23.2-21.2,36.8-51.2,36.8-82.4C291.76,143.2,241.76,93.2,180.56,93.2Zm64,184.4c-.4.4-1.2,1.2-1.2,1.6-15.6,16.8-18.4,44.4-18.8,57.6h-88.4c-.4-13.2-3.2-42-20-59.2a97.4,97.4,0,1,1,128.4,0Z"/><path class="cls-1" d="M180.16,121.6a6.8,6.8,0,0,0,0,13.6A72.81,72.81,0,0,1,253,208a6.8,6.8,0,0,0,13.6,0C267,160.4,228.16,121.6,180.16,121.6Z"/><path class="cls-1" d="M224.56,358.4h-88.8a16.8,16.8,0,1,0,0,33.6h88.4c9.6-.4,17.2-7.6,17.2-16.8A16.9,16.9,0,0,0,224.56,358.4Zm0,19.6h-88.8a3.15,3.15,0,0,1-3.2-3.2,2.94,2.94,0,0,1,3.2-3.2h88.4a3.15,3.15,0,0,1,3.2,3.2C227.36,376.8,226.16,378,224.56,378Z"/><path class="cls-1" d="M211.36,398.8H149a16.8,16.8,0,0,0,0,33.6h62.4a16.9,16.9,0,0,0,16.8-16.8A16.65,16.65,0,0,0,211.36,398.8Zm0,19.6H149a3.15,3.15,0,0,1-3.2-3.2A2.94,2.94,0,0,1,149,412h62.4a3.2,3.2,0,1,1,0,6.4Z"/><path class="cls-1" d="M180.16,60a6.74,6.74,0,0,0,6.8-6.8V6.8a6.8,6.8,0,0,0-13.6,0V53.2A7,7,0,0,0,180.16,60Z"/><path class="cls-1" d="M293.36,34.4a6.45,6.45,0,0,0-9.2,1.6l-25.6,38.4a6.59,6.59,0,0,0,1.6,9.6,6.45,6.45,0,0,0,3.6,1.2,6.38,6.38,0,0,0,5.6-3.2L295,43.6A6.2,6.2,0,0,0,293.36,34.4Z"/><path class="cls-1" d="M99,83.6a6.45,6.45,0,0,0,3.6-1.2,7,7,0,0,0,2-9.6L79.76,34a6.93,6.93,0,1,0-11.6,7.6L93,80.4A6.64,6.64,0,0,0,99,83.6Z"/><path class="cls-1" d="M50.56,126l-40.4-22c-3.2-1.6-7.6-.4-9.2,2.8a6.39,6.39,0,0,0,2.8,9.2l40.4,22a9.41,9.41,0,0,0,3.2.8,6.6,6.6,0,0,0,6-3.6C55,132,53.76,127.6,50.56,126Z"/><path class="cls-1" d="M359.76,106.8c-1.6-3.2-6-4.4-9.2-2.8l-40.8,22c-3.2,1.6-4.4,6-2.8,9.2a6.6,6.6,0,0,0,6,3.6,7.54,7.54,0,0,0,3.2-.8L357,116C360.16,114.4,361.36,110,359.76,106.8Z"/></g></g></svg>