<svg xmlns="http://www.w3.org/2000/svg" viewBox="0 0 351.37 488.41"><defs><style>.cls-1{fill:#343e4d;}.cls-2{fill:none;stroke:#343e4d;stroke-linecap:round;stroke-miterlimit:10;stroke-width:15px;}</style></defs><title>no-calculator</title><g id="Layer_2" data-name="Layer 2"><g id="Layer_1-2" data-name="Layer 1"><path class="cls-1" d="M296.54,25.67H52.23A27.1,27.1,0,0,0,25.16,52.73V432.61a27.09,27.09,0,0,0,27.07,27.06H296.54a27.09,27.09,0,0,0,27.07-27.06V52.73a27.1,27.1,0,0,0-27.07-27.06Zm13.07,406.94a13.09,13.09,0,0,1-13.07,13.06H52.23a13.08,13.08,0,0,1-13.07-13.06V52.73A13.08,13.08,0,0,1,52.23,39.67H296.54a13.09,13.09,0,0,1,13.07,13.06ZM288.72,64v64.62a7,7,0,0,1-7,7H67.05a7,7,0,0,1-7-7V64a7,7,0,0,1,7-7h35.79a7,7,0,0,1,0,14H74v50.62H274.72V71H164.88a7,7,0,1,1,0-14H281.72a7,7,0,0,1,7,7ZM126.89,64a7,7,0,0,1,7-7h5a7,7,0,0,1,0,14h-5A7,7,0,0,1,126.89,64Zm-5.6,102.8H84.39a7,7,0,0,0-7,7V210.7a7,7,0,0,0,7,7h36.89a7,7,0,0,0,7-7V173.81a7,7,0,0,0-7-7Zm-7,36.89H91.39V180.81h22.89Zm41.66,14h36.89a7,7,0,0,0,7-7V173.81a7,7,0,0,0-7-7h-36.9a7,7,0,0,0-7,7V210.7a7,7,0,0,0,7,7Zm7-36.89h22.89V203.7h-22.9Zm101.44-14h-36.9a7,7,0,0,0-7,7V210.7a7,7,0,0,0,7,7h36.9a7,7,0,0,0,7-7V173.81a7,7,0,0,0-7-7Zm-7,36.89h-22.9V180.81h22.9ZM128.28,237v36.88a7,7,0,0,1-7,7H84.39a7,7,0,0,1-7-7V237a7,7,0,0,1,14,0h0v29.9h22.89V237a7,7,0,0,1,14,0Zm20.66,36.88a7,7,0,0,0,7,7h36.9a7,7,0,0,0,7-7V237a7,7,0,0,0-7-7h-36.9a7,7,0,0,0-7,7h0Zm14-29.9h22.89v22.9H162.94Zm101.44-14H227.49a7,7,0,0,0-7,7v36.9a7,7,0,0,0,7,7h36.9a7,7,0,0,0,7-7V237a7,7,0,0,0-7-7h0Zm-7,36.9H234.49V244h22.9Zm-136.1,26.29H84.39a7,7,0,0,0-7,7v36.91a7,7,0,0,0,7,7h36.89a7,7,0,0,0,7-7V300.14A7,7,0,0,0,121.28,293.14Zm-7,36.9H91.39v-22.9h22.89Zm34.66,7a7,7,0,0,0,7,7h36.9a7,7,0,0,0,7-7v-36.9a7,7,0,0,0-7-7h-36.9a7,7,0,0,0-7,7Zm14-29.9h22.89V330H162.94Zm101.44-14H227.49a7,7,0,0,0-7,7v36.91a7,7,0,0,0,7,7h36.9a7,7,0,0,0,7-7V300.14a7,7,0,0,0-7-7Zm-7,36.9H234.49v-22.9h22.9Zm-136.1,26.27H84.39a7,7,0,0,0-7,7v36.9a7,7,0,0,0,7,7h36.89a7,7,0,0,0,7-7v-36.9A7,7,0,0,0,121.28,356.31Zm-7,36.9H91.39v-22.9h22.89Zm48.66-22.9v22.9H264.39a7,7,0,0,1,0,14H155.94a7,7,0,0,1-7-7v-36.9a7,7,0,0,1,7-7H264.39a7,7,0,0,1,0,14H162.94Z"/><line class="cls-2" x1="7.5" y1="7.5" x2="343.87" y2="480.91"/></g></g></svg>